<?xml version="1.0" encoding="UTF-8" standalone="no"?><svg xmlns="http://www.w3.org/2000/svg" xmlns:xlink="http://www.w3.org/1999/xlink" clip-rule="evenodd" stroke-miterlimit="10" viewBox="0 0 1024 768"><desc>SVG generated by Keynote</desc><defs></defs><g transform="matrix(1.00, 0.00, -0.00, -1.00, 0.0, 768.0)"><path d="M 0.0 768.0 L 1024.0 768.0 L 1024.0 0.0 L 0.0 0.0 Z M 0.0 768.0 " fill="#FEFFFF"></path><image xlink:href="../../5B10AFD3-74BA-41A7-92B5-8FBE70334CAB/assets/A9A764D9AF57D3C7F2D0C4E109C285EB.png" width="559.00" height="419.00" transform="matrix(1.18, 0.00, -0.00, -1.18, -14.0, 631.0)"></image><text xml:space="preserve" font-family="Helvetica-Light,Helvetica" font-size="36.0" fill="#000000" transform="matrix(1.00, 0.00, -0.00, -1.00, 186.9, 671.3)">P</text><text xml:space="preserve" font-family="Helvetica-Light,Helvetica" font-size="36.0" fill="#000000" transform="matrix(1.00, 0.00, -0.00, -1.00, 208.9, 671.3)">r</text><text xml:space="preserve" font-family="Helvetica-Light,Helvetica" font-size="36.0" fill="#000000" transform="matrix(1.00, 0.00, -0.00, -1.00, 220.9, 671.3)">i</text><text xml:space="preserve" font-family="Helvetica-Light,Helvetica" font-size="36.0" fill="#000000" transform="matrix(1.00, 0.00, -0.00, -1.00, 228.9, 671.3)">n</text><text xml:space="preserve" font-family="Helvetica-Light,Helvetica" font-size="36.0" fill="#000000" transform="matrix(1.00, 0.00, -0.00, -1.00, 248.9, 671.3)">t</text><text xml:space="preserve" font-family="Helvetica-Light,Helvetica" font-size="36.0" fill="#000000" transform="matrix(1.00, 0.00, -0.00, -1.00, 258.9, 671.3)">e</text><text xml:space="preserve" font-family="Helvetica-Light,Helvetica" font-size="36.0" fill="#000000" transform="matrix(1.00, 0.00, -0.00, -1.00, 278.9, 671.3)">r</text><text xml:space="preserve" font-family="Helvetica-Light,Helvetica" font-size="36.0" fill="#000000" transform="matrix(1.00, 0.00, -0.00, -1.00, 290.9, 671.3)">'</text><text xml:space="preserve" font-family="Helvetica-Light,Helvetica" font-size="36.0" fill="#000000" transform="matrix(1.00, 0.00, -0.00, -1.00, 298.9, 671.3)">s</text><text xml:space="preserve" font-family="Helvetica-Light,Helvetica" font-size="36.0" fill="#000000" transform="matrix(1.00, 0.00, -0.00, -1.00, 316.9, 671.3)"> </text><text xml:space="preserve" font-family="Helvetica-Light,Helvetica" font-size="36.0" fill="#000000" transform="matrix(1.00, 0.00, -0.00, -1.00, 326.9, 671.3)">I</text><text xml:space="preserve" font-family="Helvetica-Light,Helvetica" font-size="36.0" fill="#000000" transform="matrix(1.00, 0.00, -0.00, -1.00, 336.9, 671.3)">n</text><text xml:space="preserve" font-family="Helvetica-Light,Helvetica" font-size="36.0" fill="#000000" transform="matrix(1.00, 0.00, -0.00, -1.00, 356.9, 671.3)">k</text><text xml:space="preserve" font-family="Helvetica-Light,Helvetica" font-size="36.0" fill="#000000" transform="matrix(1.00, 0.00, -0.00, -1.00, 374.9, 671.3)"> </text><text xml:space="preserve" font-family="Helvetica-Light,Helvetica" font-size="36.0" fill="#000000" transform="matrix(1.00, 0.00, -0.00, -1.00, 385.0, 671.3)">A</text><text xml:space="preserve" font-family="Helvetica-Light,Helvetica" font-size="36.0" fill="#000000" transform="matrix(1.00, 0.00, -0.00, -1.00, 409.0, 671.3)">l</text><text xml:space="preserve" font-family="Helvetica-Light,Helvetica" font-size="36.0" fill="#000000" transform="matrix(1.00, 0.00, -0.00, -1.00, 417.0, 671.3)">l</text><text xml:space="preserve" font-family="Helvetica-Light,Helvetica" font-size="36.0" fill="#000000" transform="matrix(1.00, 0.00, -0.00, -1.00, 425.0, 671.3)">e</text><text xml:space="preserve" font-family="Helvetica-Light,Helvetica" font-size="36.0" fill="#000000" transform="matrix(1.00, 0.00, -0.00, -1.00, 445.0, 671.3)">y</text><text xml:space="preserve" font-family="Helvetica-Light,Helvetica" font-size="36.0" fill="#000000" transform="matrix(1.00, 0.00, -0.00, -1.00, 463.0, 671.3)">w</text><text xml:space="preserve" font-family="Helvetica-Light,Helvetica" font-size="36.0" fill="#000000" transform="matrix(1.00, 0.00, -0.00, -1.00, 489.0, 671.3)">a</text><text xml:space="preserve" font-family="Helvetica-Light,Helvetica" font-size="36.0" fill="#000000" transform="matrix(1.00, 0.00, -0.00, -1.00, 509.0, 671.3)">y</text><text xml:space="preserve" font-family="Helvetica-Light,Helvetica" font-size="36.0" fill="#000000" transform="matrix(1.00, 0.00, -0.00, -1.00, 527.0, 671.3)"> </text><text xml:space="preserve" font-family="Helvetica-Light,Helvetica" font-size="36.0" fill="#000000" transform="matrix(1.00, 0.00, -0.00, -1.00, 537.0, 671.3)">I</text><text xml:space="preserve" font-family="Helvetica-Light,Helvetica" font-size="36.0" fill="#000000" transform="matrix(1.00, 0.00, -0.00, -1.00, 547.0, 671.3)">m</text><text xml:space="preserve" font-family="Helvetica-Light,Helvetica" font-size="36.0" fill="#000000" transform="matrix(1.00, 0.00, -0.00, -1.00, 577.0, 671.3)">p</text><text xml:space="preserve" font-family="Helvetica-Light,Helvetica" font-size="36.0" fill="#000000" transform="matrix(1.00, 0.00, -0.00, -1.00, 599.0, 671.3)">u</text><text xml:space="preserve" font-family="Helvetica-Light,Helvetica" font-size="36.0" fill="#000000" transform="matrix(1.00, 0.00, -0.00, -1.00, 619.0, 671.3)">l</text><text xml:space="preserve" font-family="Helvetica-Light,Helvetica" font-size="36.0" fill="#000000" transform="matrix(1.00, 0.00, -0.00, -1.00, 627.0, 671.3)">s</text><text xml:space="preserve" font-family="Helvetica-Light,Helvetica" font-size="36.0" fill="#000000" transform="matrix(1.00, 0.00, -0.00, -1.00, 645.0, 671.3)">e</text><text xml:space="preserve" font-family="Helvetica-Light,Helvetica" font-size="36.0" fill="#000000" transform="matrix(1.00, 0.00, -0.00, -1.00, 665.0, 671.3)"> </text><text xml:space="preserve" font-family="Helvetica-Light,Helvetica" font-size="36.0" fill="#000000" transform="matrix(1.00, 0.00, -0.00, -1.00, 675.0, 671.3)">R</text><text xml:space="preserve" font-family="Helvetica-Light,Helvetica" font-size="36.0" fill="#000000" transform="matrix(1.00, 0.00, -0.00, -1.00, 699.0, 671.3)">e</text><text xml:space="preserve" font-family="Helvetica-Light,Helvetica" font-size="36.0" fill="#000000" transform="matrix(1.00, 0.00, -0.00, -1.00, 719.0, 671.3)">s</text><text xml:space="preserve" font-family="Helvetica-Light,Helvetica" font-size="36.0" fill="#000000" transform="matrix(1.00, 0.00, -0.00, -1.00, 737.0, 671.3)">p</text><text xml:space="preserve" font-family="Helvetica-Light,Helvetica" font-size="36.0" fill="#000000" transform="matrix(1.00, 0.00, -0.00, -1.00, 759.0, 671.3)">o</text><text xml:space="preserve" font-family="Helvetica-Light,Helvetica" font-size="36.0" fill="#000000" transform="matrix(1.00, 0.00, -0.00, -1.00, 779.0, 671.3)">n</text><text xml:space="preserve" font-family="Helvetica-Light,Helvetica" font-size="36.0" fill="#000000" transform="matrix(1.00, 0.00, -0.00, -1.00, 799.1, 671.3)">s</text><text xml:space="preserve" font-family="Helvetica-Light,Helvetica" font-size="36.0" fill="#000000" transform="matrix(1.00, 0.00, -0.00, -1.00, 817.1, 671.3)">e</text><text xml:space="preserve" font-family="Helvetica-Light,Helvetica" font-size="26.0" fill="#000000" transform="matrix(1.00, 0.00, -0.00, -1.00, 687.5, 561.5)">K</text><text xml:space="preserve" font-family="Helvetica-Light,Helvetica" font-size="26.0" fill="#000000" transform="matrix(1.00, 0.00, -0.00, -1.00, 704.8, 561.5)">e</text><text xml:space="preserve" font-family="Helvetica-Light,Helvetica" font-size="26.0" fill="#000000" transform="matrix(1.00, 0.00, -0.00, -1.00, 719.3, 561.5)">y</text><text xml:space="preserve" font-family="Helvetica-Light,Helvetica" font-size="26.0" fill="#000000" transform="matrix(1.00, 0.00, -0.00, -1.00, 732.3, 561.5)"> </text><text xml:space="preserve" font-family="Helvetica-Light,Helvetica" font-size="26.0" fill="#000000" transform="matrix(1.00, 0.00, -0.00, -1.00, 739.5, 561.5)">f</text><text xml:space="preserve" font-family="Helvetica-Light,Helvetica" font-size="26.0" fill="#000000" transform="matrix(1.00, 0.00, -0.00, -1.00, 746.7, 561.5)">e</text><text xml:space="preserve" font-family="Helvetica-Light,Helvetica" font-size="26.0" fill="#000000" transform="matrix(1.00, 0.00, -0.00, -1.00, 761.2, 561.5)">a</text><text xml:space="preserve" font-family="Helvetica-Light,Helvetica" font-size="26.0" fill="#000000" transform="matrix(1.00, 0.00, -0.00, -1.00, 775.6, 561.5)">t</text><text xml:space="preserve" font-family="Helvetica-Light,Helvetica" font-size="26.0" fill="#000000" transform="matrix(1.00, 0.00, -0.00, -1.00, 782.9, 561.5)">u</text><text xml:space="preserve" font-family="Helvetica-Light,Helvetica" font-size="26.0" fill="#000000" transform="matrix(1.00, 0.00, -0.00, -1.00, 797.3, 561.5)">r</text><text xml:space="preserve" font-family="Helvetica-Light,Helvetica" font-size="26.0" fill="#000000" transform="matrix(1.00, 0.00, -0.00, -1.00, 805.5, 561.5)">e</text><text xml:space="preserve" font-family="Helvetica-Light,Helvetica" font-size="26.0" fill="#000000" transform="matrix(1.00, 0.00, -0.00, -1.00, 820.0, 561.5)">s</text><g><clipPath id="clip0x7fc8213d8de0"><path d="M 686.5 557.9 L 833.0 557.9 L 833.0 561.2 L 686.5 561.2 Z M 686.5 557.9 "></path></clipPath><g clip-path="url(#clip0x7fc8213d8de0)"><path d="M 4.0 31.0 L 149.5 31.0 " fill="none" stroke="#000000" stroke-width="1.30" transform="matrix(1.00, 0.00, 0.00, -1.00, 683.5, 590.5)"></path></g></g><text xml:space="preserve" font-family="Helvetica-Light,Helvetica" font-size="24.0" fill="#000000" transform="matrix(1.00, 0.00, -0.00, -1.00, 684.8, 515.0)">1</text><text xml:space="preserve" font-family="Helvetica-Light,Helvetica" font-size="24.0" fill="#000000" transform="matrix(1.00, 0.00, -0.00, -1.00, 698.1, 515.0)">.</text><text xml:space="preserve" font-family="Helvetica-Light,Helvetica" font-size="24.0" fill="#000000" transform="matrix(1.00, 0.00, -0.00, -1.00, 712.5, 515.0)">R</text><text xml:space="preserve" font-family="Helvetica-Light,Helvetica" font-size="24.0" fill="#000000" transform="matrix(1.00, 0.00, -0.00, -1.00, 728.5, 515.0)">i</text><text xml:space="preserve" font-family="Helvetica-Light,Helvetica" font-size="24.0" fill="#000000" transform="matrix(1.00, 0.00, -0.00, -1.00, 733.9, 515.0)">s</text><text xml:space="preserve" font-family="Helvetica-Light,Helvetica" font-size="24.0" fill="#000000" transform="matrix(1.00, 0.00, -0.00, -1.00, 745.9, 515.0)">e</text><text xml:space="preserve" font-family="Helvetica-Light,Helvetica" font-size="24.0" fill="#000000" transform="matrix(1.00, 0.00, -0.00, -1.00, 759.2, 515.0)"> </text><text xml:space="preserve" font-family="Helvetica-Light,Helvetica" font-size="24.0" fill="#000000" transform="matrix(1.00, 0.00, -0.00, -1.00, 765.9, 515.0)">o</text><text xml:space="preserve" font-family="Helvetica-Light,Helvetica" font-size="24.0" fill="#000000" transform="matrix(1.00, 0.00, -0.00, -1.00, 779.2, 515.0)">f</text><text xml:space="preserve" font-family="Helvetica-Light,Helvetica" font-size="24.0" fill="#000000" transform="matrix(1.00, 0.00, -0.00, -1.00, 785.9, 515.0)"> </text><text xml:space="preserve" font-family="Helvetica-Light,Helvetica" font-size="24.0" fill="#000000" transform="matrix(1.00, 0.00, -0.00, -1.00, 792.6, 515.0)">s</text><text xml:space="preserve" font-family="Helvetica-Light,Helvetica" font-size="24.0" fill="#000000" transform="matrix(1.00, 0.00, -0.00, -1.00, 804.6, 515.0)">p</text><text xml:space="preserve" font-family="Helvetica-Light,Helvetica" font-size="24.0" fill="#000000" transform="matrix(1.00, 0.00, -0.00, -1.00, 819.2, 515.0)">e</text><text xml:space="preserve" font-family="Helvetica-Light,Helvetica" font-size="24.0" fill="#000000" transform="matrix(1.00, 0.00, -0.00, -1.00, 832.6, 515.0)">c</text><text xml:space="preserve" font-family="Helvetica-Light,Helvetica" font-size="24.0" fill="#000000" transform="matrix(1.00, 0.00, -0.00, -1.00, 845.9, 515.0)">t</text><text xml:space="preserve" font-family="Helvetica-Light,Helvetica" font-size="24.0" fill="#000000" transform="matrix(1.00, 0.00, -0.00, -1.00, 852.6, 515.0)">r</text><text xml:space="preserve" font-family="Helvetica-Light,Helvetica" font-size="24.0" fill="#000000" transform="matrix(1.00, 0.00, -0.00, -1.00, 860.6, 515.0)">a</text><text xml:space="preserve" font-family="Helvetica-Light,Helvetica" font-size="24.0" fill="#000000" transform="matrix(1.00, 0.00, -0.00, -1.00, 873.9, 515.0)">l</text><text xml:space="preserve" font-family="Helvetica-Light,Helvetica" font-size="24.0" fill="#000000" transform="matrix(1.00, 0.00, -0.00, -1.00, 879.3, 515.0)"> </text><text xml:space="preserve" font-family="Helvetica-Light,Helvetica" font-size="24.0" fill="#000000" transform="matrix(1.00, 0.00, -0.00, -1.00, 885.9, 515.0)">z</text><text xml:space="preserve" font-family="Helvetica-Light,Helvetica" font-size="24.0" fill="#000000" transform="matrix(1.00, 0.00, -0.00, -1.00, 897.9, 515.0)">e</text><text xml:space="preserve" font-family="Helvetica-Light,Helvetica" font-size="24.0" fill="#000000" transform="matrix(1.00, 0.00, -0.00, -1.00, 911.3, 515.0)">r</text><text xml:space="preserve" font-family="Helvetica-Light,Helvetica" font-size="24.0" fill="#000000" transform="matrix(1.00, 0.00, -0.00, -1.00, 918.8, 515.0)">o</text><text xml:space="preserve" font-family="Helvetica-Light,Helvetica" font-size="24.0" fill="#000000" transform="matrix(1.00, 0.00, -0.00, -1.00, 932.2, 515.0)">s</text><text xml:space="preserve" font-family="Helvetica-Light,Helvetica" font-size="24.0" fill="#000000" transform="matrix(1.00, 0.00, -0.00, -1.00, 944.2, 515.0)"> </text><text xml:space="preserve" font-family="Helvetica-Light,Helvetica" font-size="24.0" fill="#000000" transform="matrix(1.00, 0.00, -0.00, -1.00, 712.5, 486.0)">i</text><text xml:space="preserve" font-family="Helvetica-Light,Helvetica" font-size="24.0" fill="#000000" transform="matrix(1.00, 0.00, -0.00, -1.00, 717.9, 486.0)">n</text><text xml:space="preserve" font-family="Helvetica-Light,Helvetica" font-size="24.0" fill="#000000" transform="matrix(1.00, 0.00, -0.00, -1.00, 731.2, 486.0)"> </text><text xml:space="preserve" font-family="Helvetica-Light,Helvetica" font-size="24.0" fill="#000000" transform="matrix(1.00, 0.00, -0.00, -1.00, 737.9, 486.0)">t</text><text xml:space="preserve" font-family="Helvetica-Light,Helvetica" font-size="24.0" fill="#000000" transform="matrix(1.00, 0.00, -0.00, -1.00, 744.6, 486.0)">h</text><text xml:space="preserve" font-family="Helvetica-Light,Helvetica" font-size="24.0" fill="#000000" transform="matrix(1.00, 0.00, -0.00, -1.00, 757.9, 486.0)">e</text><text xml:space="preserve" font-family="Helvetica-Light,Helvetica" font-size="24.0" fill="#000000" transform="matrix(1.00, 0.00, -0.00, -1.00, 771.2, 486.0)"> </text><text xml:space="preserve" font-family="Helvetica-Bold,Helvetica" font-weight="bold" font-size="24.0" fill="#000000" transform="matrix(1.00, 0.00, -0.00, -1.00, 777.9, 486.0)">o</text><text xml:space="preserve" font-family="Helvetica-Bold,Helvetica" font-weight="bold" font-size="24.0" fill="#000000" transform="matrix(1.00, 0.00, -0.00, -1.00, 792.6, 486.0)">n</text><text xml:space="preserve" font-family="Helvetica-Bold,Helvetica" font-weight="bold" font-size="24.0" fill="#000000" transform="matrix(1.00, 0.00, -0.00, -1.00, 807.2, 486.0)">s</text><text xml:space="preserve" font-family="Helvetica-Bold,Helvetica" font-weight="bold" font-size="24.0" fill="#000000" transform="matrix(1.00, 0.00, -0.00, -1.00, 820.6, 486.0)">e</text><text xml:space="preserve" font-family="Helvetica-Bold,Helvetica" font-weight="bold" font-size="24.0" fill="#000000" transform="matrix(1.00, 0.00, -0.00, -1.00, 833.9, 486.0)">t</text><image xlink:href="../../A6C9D41D-A9A3-42ED-ADD4-1F6AA907C8A3/assets/3CDA43DB40793E55055C80646E2B3B1D.png" width="148.00" height="260.00" transform="matrix(1.00, 0.00, -0.00, -1.00, 116.6, 459.8)" opacity="0.50"></image><path d="M 0.4 -0.2 L 139.4 -0.2 L 139.4 250.8 L 0.4 250.8 Z M 0.0 0.0 " fill="none" stroke="#FF37C0" stroke-width="3.00" transform="matrix(1.00, 0.00, 0.00, -1.00, 121.1, 457.3)"></path></g></svg>