<?xml version="1.0" encoding="UTF-8" standalone="no"?><svg xmlns="http://www.w3.org/2000/svg" xmlns:xlink="http://www.w3.org/1999/xlink" clip-rule="evenodd" stroke-miterlimit="10" viewBox="0 0 1024 768"><desc>SVG generated by Keynote</desc><defs></defs><g transform="matrix(1.00, 0.00, -0.00, -1.00, 0.0, 768.0)"><path d="M 0.0 768.0 L 1024.0 768.0 L 1024.0 0.0 L 0.0 0.0 Z M 0.0 768.0 " fill="#FEFFFF"></path><text xml:space="preserve" font-family="Helvetica-Light,Helvetica" font-size="36.0" fill="#000000" transform="matrix(1.00, 0.00, -0.00, -1.00, 264.6, 671.3)">I</text><text xml:space="preserve" font-family="Helvetica-Light,Helvetica" font-size="36.0" fill="#000000" transform="matrix(1.00, 0.00, -0.00, -1.00, 274.6, 671.3)">m</text><text xml:space="preserve" font-family="Helvetica-Light,Helvetica" font-size="36.0" fill="#000000" transform="matrix(1.00, 0.00, -0.00, -1.00, 304.6, 671.3)">a</text><text xml:space="preserve" font-family="Helvetica-Light,Helvetica" font-size="36.0" fill="#000000" transform="matrix(1.00, 0.00, -0.00, -1.00, 324.6, 671.3)">g</text><text xml:space="preserve" font-family="Helvetica-Light,Helvetica" font-size="36.0" fill="#000000" transform="matrix(1.00, 0.00, -0.00, -1.00, 346.6, 671.3)">e</text><text xml:space="preserve" font-family="Helvetica-Light,Helvetica" font-size="36.0" fill="#000000" transform="matrix(1.00, 0.00, -0.00, -1.00, 366.6, 671.3)"> </text><text xml:space="preserve" font-family="Helvetica-Light,Helvetica" font-size="36.0" fill="#000000" transform="matrix(1.00, 0.00, -0.00, -1.00, 376.6, 671.3)">M</text><text xml:space="preserve" font-family="Helvetica-Light,Helvetica" font-size="36.0" fill="#000000" transform="matrix(1.00, 0.00, -0.00, -1.00, 406.6, 671.3)">o</text><text xml:space="preserve" font-family="Helvetica-Light,Helvetica" font-size="36.0" fill="#000000" transform="matrix(1.00, 0.00, -0.00, -1.00, 426.6, 671.3)">d</text><text xml:space="preserve" font-family="Helvetica-Light,Helvetica" font-size="36.0" fill="#000000" transform="matrix(1.00, 0.00, -0.00, -1.00, 448.6, 671.3)">e</text><text xml:space="preserve" font-family="Helvetica-Light,Helvetica" font-size="36.0" fill="#000000" transform="matrix(1.00, 0.00, -0.00, -1.00, 468.7, 671.3)">l</text><text xml:space="preserve" font-family="Helvetica-Light,Helvetica" font-size="36.0" fill="#000000" transform="matrix(1.00, 0.00, -0.00, -1.00, 476.6, 671.3)">i</text><text xml:space="preserve" font-family="Helvetica-Light,Helvetica" font-size="36.0" fill="#000000" transform="matrix(1.00, 0.00, -0.00, -1.00, 484.6, 671.3)">n</text><text xml:space="preserve" font-family="Helvetica-Light,Helvetica" font-size="36.0" fill="#000000" transform="matrix(1.00, 0.00, -0.00, -1.00, 504.7, 671.3)">g</text><text xml:space="preserve" font-family="Helvetica-Light,Helvetica" font-size="36.0" fill="#000000" transform="matrix(1.00, 0.00, -0.00, -1.00, 526.7, 671.3)">:</text><text xml:space="preserve" font-family="Helvetica-Light,Helvetica" font-size="36.0" fill="#000000" transform="matrix(1.00, 0.00, -0.00, -1.00, 536.7, 671.3)"> </text><text xml:space="preserve" font-family="Helvetica-Light,Helvetica" font-size="36.0" fill="#000000" transform="matrix(1.00, 0.00, -0.00, -1.00, 546.7, 671.3)">C</text><text xml:space="preserve" font-family="Helvetica-Light,Helvetica" font-size="36.0" fill="#000000" transform="matrix(1.00, 0.00, -0.00, -1.00, 572.7, 671.3)">a</text><text xml:space="preserve" font-family="Helvetica-Light,Helvetica" font-size="36.0" fill="#000000" transform="matrix(1.00, 0.00, -0.00, -1.00, 592.7, 671.3)">n</text><text xml:space="preserve" font-family="Helvetica-Light,Helvetica" font-size="36.0" fill="#000000" transform="matrix(1.00, 0.00, -0.00, -1.00, 612.7, 671.3)">t</text><text xml:space="preserve" font-family="Helvetica-Light,Helvetica" font-size="36.0" fill="#000000" transform="matrix(1.00, 0.00, -0.00, -1.00, 622.7, 671.3)">e</text><text xml:space="preserve" font-family="Helvetica-Light,Helvetica" font-size="36.0" fill="#000000" transform="matrix(1.00, 0.00, -0.00, -1.00, 642.7, 671.3)">d</text><text xml:space="preserve" font-family="Helvetica-Light,Helvetica" font-size="36.0" fill="#000000" transform="matrix(1.00, 0.00, -0.00, -1.00, 664.7, 671.3)"> </text><text xml:space="preserve" font-family="Helvetica-Light,Helvetica" font-size="36.0" fill="#000000" transform="matrix(1.00, 0.00, -0.00, -1.00, 674.7, 671.3)">W</text><text xml:space="preserve" font-family="Helvetica-Light,Helvetica" font-size="36.0" fill="#000000" transform="matrix(1.00, 0.00, -0.00, -1.00, 705.4, 671.3)">a</text><text xml:space="preserve" font-family="Helvetica-Light,Helvetica" font-size="36.0" fill="#000000" transform="matrix(1.00, 0.00, -0.00, -1.00, 725.4, 671.3)">l</text><text xml:space="preserve" font-family="Helvetica-Light,Helvetica" font-size="36.0" fill="#000000" transform="matrix(1.00, 0.00, -0.00, -1.00, 733.4, 671.3)">l</text><text xml:space="preserve" font-family="Helvetica-Light,Helvetica" font-size="36.0" fill="#000000" transform="matrix(1.00, 0.00, -0.00, -1.00, 741.4, 671.3)">s</text><g><clipPath id="clip0x7fc821ba0140"><path d="M 14.0 519.0 L 482.0 519.0 L 482.0 199.0 L 14.0 199.0 Z M 14.0 519.0 "></path></clipPath><g clip-path="url(#clip0x7fc821ba0140)"><g><clipPath id="clip0x7fc821ba08a0"><path d="M 14.0 519.0 L 14.0 199.0 L 482.0 199.0 L 482.0 519.0 Z M 14.0 519.0 "></path></clipPath><g clip-path="url(#clip0x7fc821ba08a0)"><g><clipPath id="clip0x7fc821ba0fc0"><path d="M 14.0 519.0 L 482.0 519.0 L 482.0 199.0 L 14.0 199.0 Z M 14.0 519.0 "></path></clipPath><g clip-path="url(#clip0x7fc821ba0fc0)"><g><clipPath id="clip0x7fc821ba1730"><path d="M 14.0 199.0 L 482.0 199.0 L 482.0 519.0 L 14.0 519.0 Z M 14.0 199.0 "></path></clipPath><g clip-path="url(#clip0x7fc821ba1730)"><path d="M 14.0 519.0 L 482.0 519.0 L 482.0 199.0 L 14.0 199.0 L 14.0 519.0 Z M 14.0 519.0 " fill="#FFFFFF"></path><path d="M 213.8 462.4 L 213.8 463.2 L 215.3 463.2 L 215.3 469.1 L 213.8 468.7 L 213.8 469.5 L 216.3 470.1 L 216.3 463.2 L 217.8 463.2 L 217.8 462.4 Z M 213.8 462.4 " fill="#000000"></path><path d="M 246.3 462.3 L 246.3 463.2 C 246.6 463.9 247.2 464.6 248.1 465.4 L 248.6 465.9 C 249.4 466.6 249.7 467.2 249.7 467.9 C 249.7 468.3 249.6 468.6 249.3 468.9 C 249.1 469.1 248.8 469.2 248.3 469.2 C 247.8 469.2 247.2 469.0 246.5 468.6 L 246.5 469.5 C 247.1 469.8 247.8 470.0 248.5 470.0 C 249.2 470.0 249.7 469.8 250.1 469.4 C 250.6 469.0 250.8 468.5 250.8 467.9 C 250.8 467.5 250.7 467.1 250.5 466.7 C 250.2 466.4 249.8 465.9 249.3 465.5 L 248.9 465.1 C 248.1 464.4 247.6 463.8 247.5 463.2 L 250.7 463.2 L 250.7 462.3 Z M 246.3 462.3 " fill="#000000"></path><path d="M 95.6 493.3 L 95.6 494.1 L 97.1 494.1 L 97.1 500.0 L 95.6 499.6 L 95.6 500.4 L 98.1 501.0 L 98.1 494.1 L 99.6 494.1 L 99.6 493.3 Z M 95.6 493.3 " fill="#000000"></path><path d="M 179.3 468.8 L 179.3 469.7 C 179.6 470.4 180.2 471.1 181.1 471.9 L 181.6 472.4 C 182.4 473.1 182.7 473.8 182.7 474.4 C 182.7 474.8 182.6 475.2 182.4 475.4 C 182.1 475.6 181.8 475.8 181.3 475.8 C 180.8 475.8 180.2 475.6 179.5 475.2 L 179.5 476.0 C 180.2 476.3 180.8 476.5 181.5 476.5 C 182.2 476.5 182.7 476.3 183.2 475.9 C 183.6 475.6 183.8 475.1 183.8 474.4 C 183.8 474.0 183.7 473.6 183.5 473.2 C 183.3 472.9 182.9 472.5 182.3 472.0 L 181.9 471.6 C 181.1 471.0 180.6 470.3 180.5 469.7 L 183.8 469.7 L 183.8 468.8 Z M 179.3 468.8 " fill="#000000"></path><path d="M 122.7 483.7 L 122.7 484.6 C 123.0 485.3 123.6 486.0 124.5 486.8 L 125.0 487.3 C 125.8 488.0 126.1 488.6 126.1 489.3 C 126.1 489.7 126.0 490.0 125.8 490.3 C 125.5 490.5 125.2 490.6 124.7 490.6 C 124.2 490.6 123.6 490.4 122.9 490.0 L 122.9 490.9 C 123.5 491.2 124.2 491.4 124.9 491.4 C 125.6 491.4 126.1 491.2 126.6 490.8 C 127.0 490.4 127.2 489.9 127.2 489.3 C 127.2 488.9 127.1 488.5 126.9 488.1 C 126.6 487.8 126.3 487.4 125.7 486.9 L 125.3 486.5 C 124.5 485.9 124.0 485.2 123.9 484.6 L 127.1 484.6 L 127.1 483.7 Z M 122.7 483.7 " fill="#000000"></path><path d="M 149.5 474.1 L 149.5 474.9 L 151.0 474.9 L 151.0 480.8 L 149.5 480.4 L 149.5 481.2 L 152.0 481.8 L 152.0 474.9 L 153.5 474.9 L 153.5 474.1 Z M 149.5 474.1 " fill="#000000"></path><path d="M 70.3 505.7 L 70.3 506.6 C 70.6 507.3 71.1 508.0 72.0 508.8 L 72.6 509.3 C 73.3 510.0 73.7 510.7 73.7 511.3 C 73.7 511.7 73.6 512.1 73.3 512.3 C 73.1 512.5 72.7 512.7 72.3 512.7 C 71.8 512.7 71.2 512.5 70.5 512.1 L 70.5 512.9 C 71.1 513.2 71.8 513.4 72.4 513.4 C 73.1 513.4 73.7 513.2 74.1 512.8 C 74.5 512.5 74.8 512.0 74.8 511.3 C 74.8 510.9 74.6 510.5 74.4 510.1 C 74.2 509.8 73.8 509.4 73.2 508.9 L 72.9 508.5 C 72.1 507.9 71.6 507.2 71.5 506.6 L 74.7 506.6 L 74.7 505.7 Z M 70.3 505.7 " fill="#000000"></path><path d="M 280.7 462.3 L 280.7 463.1 L 282.2 463.1 L 282.2 469.0 L 280.7 468.6 L 280.7 469.4 L 283.2 470.0 L 283.2 463.1 L 284.7 463.1 L 284.7 462.3 Z M 280.7 462.3 " fill="#000000"></path><path d="M 397.1 493.2 L 397.1 494.0 L 398.6 494.0 L 398.6 499.9 L 397.1 499.5 L 397.1 500.3 L 399.6 500.9 L 399.6 494.0 L 401.1 494.0 L 401.1 493.2 Z M 397.1 493.2 " fill="#000000"></path><path d="M 312.0 468.7 L 312.0 469.6 C 312.3 470.3 312.9 471.0 313.8 471.8 L 314.3 472.3 C 315.1 473.0 315.4 473.6 315.4 474.3 C 315.4 474.7 315.3 475.0 315.1 475.3 C 314.8 475.5 314.5 475.6 314.0 475.6 C 313.5 475.6 312.9 475.4 312.2 475.0 L 312.2 475.9 C 312.9 476.2 313.5 476.4 314.2 476.4 C 314.9 476.4 315.4 476.2 315.9 475.8 C 316.3 475.5 316.5 474.9 316.5 474.3 C 316.5 473.9 316.4 473.5 316.2 473.1 C 316.0 472.8 315.6 472.4 315.0 471.9 L 314.6 471.5 C 313.8 470.9 313.3 470.2 313.2 469.6 L 316.5 469.6 L 316.5 468.7 Z M 312.0 468.7 " fill="#000000"></path><path d="M 368.6 483.6 L 368.6 484.5 C 368.9 485.2 369.5 485.9 370.4 486.7 L 370.9 487.2 C 371.7 487.9 372.1 488.5 372.1 489.2 C 372.1 489.6 371.9 489.9 371.7 490.2 C 371.4 490.4 371.1 490.5 370.6 490.5 C 370.1 490.5 369.5 490.3 368.8 489.9 L 368.8 490.8 C 369.5 491.1 370.1 491.3 370.8 491.3 C 371.5 491.3 372.0 491.1 372.5 490.7 C 372.9 490.3 373.1 489.8 373.1 489.2 C 373.1 488.8 373.0 488.4 372.8 488.0 C 372.6 487.7 372.2 487.2 371.6 486.8 L 371.2 486.4 C 370.4 485.7 369.9 485.1 369.8 484.5 L 373.1 484.5 L 373.1 483.6 Z M 368.6 483.6 " fill="#000000"></path><path d="M 343.2 474.0 L 343.2 474.7 L 344.7 474.7 L 344.7 480.7 L 343.2 480.3 L 343.2 481.0 L 345.7 481.7 L 345.7 474.7 L 347.2 474.7 L 347.2 474.0 Z M 343.2 474.0 " fill="#000000"></path><path d="M 421.1 505.6 L 421.1 506.5 C 421.3 507.2 421.9 507.9 422.8 508.7 L 423.4 509.2 C 424.1 509.9 424.5 510.5 424.5 511.2 C 424.5 511.6 424.4 511.9 424.1 512.2 C 423.9 512.4 423.5 512.5 423.1 512.5 C 422.6 512.5 421.9 512.3 421.2 511.9 L 421.2 512.8 C 421.9 513.1 422.6 513.3 423.2 513.3 C 423.9 513.3 424.5 513.1 424.9 512.7 C 425.3 512.4 425.5 511.9 425.5 511.2 C 425.5 510.8 425.4 510.4 425.2 510.0 C 425.0 509.7 424.6 509.3 424.0 508.8 L 423.6 508.4 C 422.8 507.8 422.4 507.1 422.3 506.5 L 425.5 506.5 L 425.5 505.6 Z M 421.1 505.6 " fill="#000000"></path><path d="M 213.8 247.6 L 213.8 248.3 L 215.3 248.3 L 215.3 254.2 L 213.8 253.9 L 213.8 254.6 L 216.3 255.3 L 216.3 248.3 L 217.8 248.3 L 217.8 247.6 Z M 213.8 247.6 " fill="#000000"></path><path d="M 246.3 247.7 L 246.3 248.6 C 246.6 249.2 247.2 250.0 248.1 250.8 L 248.6 251.3 C 249.4 252.0 249.7 252.6 249.7 253.3 C 249.7 253.7 249.6 254.0 249.3 254.3 C 249.1 254.5 248.8 254.6 248.3 254.6 C 247.8 254.6 247.2 254.4 246.5 254.0 L 246.5 254.9 C 247.1 255.2 247.8 255.4 248.5 255.4 C 249.2 255.4 249.7 255.2 250.1 254.8 C 250.6 254.4 250.8 253.9 250.8 253.3 C 250.8 252.8 250.7 252.4 250.5 252.1 C 250.2 251.8 249.8 251.3 249.3 250.8 L 248.9 250.5 C 248.1 249.8 247.6 249.2 247.5 248.6 L 250.7 248.6 L 250.7 247.7 Z M 246.3 247.7 " fill="#000000"></path><path d="M 95.6 216.7 L 95.6 217.4 L 97.1 217.4 L 97.1 223.3 L 95.6 222.9 L 95.6 223.7 L 98.1 224.3 L 98.1 217.4 L 99.6 217.4 L 99.6 216.7 Z M 95.6 216.7 " fill="#000000"></path><path d="M 179.3 241.2 L 179.3 242.0 C 179.6 242.7 180.2 243.5 181.1 244.3 L 181.6 244.8 C 182.4 245.4 182.7 246.1 182.7 246.7 C 182.7 247.2 182.6 247.5 182.4 247.7 C 182.1 248.0 181.8 248.1 181.3 248.1 C 180.8 248.1 180.2 247.9 179.5 247.5 L 179.5 248.4 C 180.2 248.7 180.8 248.8 181.5 248.8 C 182.2 248.8 182.7 248.7 183.2 248.3 C 183.6 247.9 183.8 247.4 183.8 246.8 C 183.8 246.3 183.7 245.9 183.5 245.6 C 183.3 245.2 182.9 244.8 182.3 244.3 L 181.9 244.0 C 181.1 243.3 180.6 242.7 180.5 242.0 L 183.8 242.0 L 183.8 241.2 Z M 179.3 241.2 " fill="#000000"></path><path d="M 122.7 226.3 L 122.7 227.2 C 123.0 227.8 123.6 228.6 124.5 229.4 L 125.0 229.9 C 125.8 230.5 126.1 231.2 126.1 231.9 C 126.1 232.3 126.0 232.6 125.8 232.8 C 125.5 233.1 125.2 233.2 124.7 233.2 C 124.2 233.2 123.6 233.0 122.9 232.6 L 122.9 233.5 C 123.5 233.8 124.2 234.0 124.9 234.0 C 125.6 234.0 126.1 233.8 126.6 233.4 C 127.0 233.0 127.2 232.5 127.2 231.9 C 127.2 231.4 127.1 231.0 126.9 230.7 C 126.6 230.3 126.3 229.9 125.7 229.4 L 125.3 229.1 C 124.5 228.4 124.0 227.8 123.9 227.2 L 127.1 227.2 L 127.1 226.3 Z M 122.7 226.3 " fill="#000000"></path><path d="M 149.5 235.9 L 149.5 236.6 L 151.0 236.6 L 151.0 242.6 L 149.5 242.2 L 149.5 242.9 L 152.0 243.6 L 152.0 236.6 L 153.5 236.6 L 153.5 235.9 Z M 149.5 235.9 " fill="#000000"></path><path d="M 70.3 204.3 L 70.3 205.1 C 70.6 205.8 71.1 206.6 72.0 207.4 L 72.6 207.9 C 73.3 208.5 73.7 209.2 73.7 209.8 C 73.7 210.3 73.6 210.6 73.3 210.8 C 73.1 211.1 72.7 211.2 72.3 211.2 C 71.8 211.2 71.2 211.0 70.5 210.6 L 70.5 211.5 C 71.1 211.8 71.8 211.9 72.4 211.9 C 73.1 211.9 73.7 211.8 74.1 211.4 C 74.5 211.0 74.8 210.5 74.8 209.9 C 74.8 209.4 74.6 209.0 74.4 208.7 C 74.2 208.3 73.8 207.9 73.2 207.4 L 72.9 207.1 C 72.1 206.4 71.6 205.8 71.5 205.1 L 74.7 205.1 L 74.7 204.3 Z M 70.3 204.3 " fill="#000000"></path><path d="M 280.7 247.7 L 280.7 248.4 L 282.2 248.4 L 282.2 254.3 L 280.7 254.0 L 280.7 254.7 L 283.2 255.4 L 283.2 248.4 L 284.7 248.4 L 284.7 247.7 Z M 280.7 247.7 " fill="#000000"></path><path d="M 397.1 216.8 L 397.1 217.5 L 398.6 217.5 L 398.6 223.4 L 397.1 223.0 L 397.1 223.8 L 399.6 224.4 L 399.6 217.5 L 401.1 217.5 L 401.1 216.8 Z M 397.1 216.8 " fill="#000000"></path><path d="M 312.0 241.3 L 312.0 242.1 C 312.3 242.8 312.9 243.6 313.8 244.4 L 314.3 244.9 C 315.1 245.5 315.4 246.2 315.4 246.9 C 315.4 247.3 315.3 247.6 315.1 247.8 C 314.8 248.1 314.5 248.2 314.0 248.2 C 313.5 248.2 312.9 248.0 312.2 247.6 L 312.2 248.5 C 312.9 248.8 313.5 249.0 314.2 249.0 C 314.9 249.0 315.4 248.8 315.9 248.4 C 316.3 248.0 316.5 247.5 316.5 246.9 C 316.5 246.4 316.4 246.0 316.2 245.7 C 316.0 245.3 315.6 244.9 315.0 244.4 L 314.6 244.1 C 313.8 243.4 313.3 242.8 313.2 242.1 L 316.5 242.1 L 316.5 241.3 Z M 312.0 241.3 " fill="#000000"></path><path d="M 368.6 226.4 L 368.6 227.3 C 368.9 227.9 369.5 228.7 370.4 229.5 L 370.9 230.0 C 371.7 230.7 372.1 231.3 372.1 232.0 C 372.1 232.4 371.9 232.7 371.7 233.0 C 371.4 233.2 371.1 233.3 370.6 233.3 C 370.1 233.3 369.5 233.1 368.8 232.7 L 368.8 233.6 C 369.5 233.9 370.1 234.1 370.8 234.1 C 371.5 234.1 372.0 233.9 372.5 233.5 C 372.9 233.1 373.1 232.6 373.1 232.0 C 373.1 231.5 373.0 231.1 372.8 230.8 C 372.6 230.5 372.2 230.0 371.6 229.5 L 371.2 229.2 C 370.4 228.5 369.9 227.9 369.8 227.3 L 373.1 227.3 L 373.1 226.4 Z M 368.6 226.4 " fill="#000000"></path><path d="M 343.2 236.0 L 343.2 236.7 L 344.7 236.7 L 344.7 242.7 L 343.2 242.3 L 343.2 243.1 L 345.7 243.7 L 345.7 236.7 L 347.2 236.7 L 347.2 236.0 Z M 343.2 236.0 " fill="#000000"></path><path d="M 421.1 204.4 L 421.1 205.2 C 421.3 205.9 421.9 206.7 422.8 207.5 L 423.4 208.0 C 424.1 208.6 424.5 209.3 424.5 210.0 C 424.5 210.4 424.4 210.7 424.1 210.9 C 423.9 211.2 423.5 211.3 423.1 211.3 C 422.6 211.3 421.9 211.1 421.2 210.7 L 421.2 211.6 C 421.9 211.9 422.6 212.0 423.2 212.0 C 423.9 212.0 424.5 211.9 424.9 211.5 C 425.3 211.1 425.5 210.6 425.5 210.0 C 425.5 209.5 425.4 209.1 425.2 208.8 C 425.0 208.4 424.6 208.0 424.0 207.5 L 423.6 207.2 C 422.8 206.5 422.4 205.9 422.3 205.2 L 425.5 205.2 L 425.5 204.4 Z M 421.1 204.4 " fill="#000000"></path><path d="M 56.4 448.1 C 56.4 443.4 52.6 439.6 47.9 439.6 C 43.3 439.6 39.5 443.4 39.5 448.1 C 39.5 452.8 43.3 456.6 47.9 456.6 C 52.6 456.6 56.4 452.8 56.4 448.1 Z M 56.4 448.1 " fill="#FFCC00"></path><path d="M 42.7 439.3 L 42.3 439.7 L 42.9 440.3 L 40.5 442.8 L 40.0 442.0 L 39.6 442.4 L 40.6 444.1 L 43.6 441.0 L 44.3 441.7 L 44.7 441.3 Z M 45.4 442.0 L 44.9 442.6 L 44.9 442.6 C 44.8 443.1 44.8 443.5 44.8 443.8 L 44.9 444.3 C 44.9 445.2 44.8 445.8 44.5 446.1 C 44.1 446.4 43.8 446.4 43.4 446.0 C 43.1 445.7 42.9 445.4 42.7 444.9 L 42.2 445.4 C 42.5 445.8 42.7 446.2 43.1 446.6 C 43.4 446.9 43.8 447.1 44.2 447.2 C 44.5 447.2 44.9 447.1 45.2 446.8 C 45.4 446.6 45.5 446.4 45.5 446.1 C 45.6 445.9 45.6 445.5 45.5 445.0 L 45.5 444.6 C 45.4 444.0 45.5 443.6 45.6 443.3 L 47.1 444.8 L 47.7 444.3 Z M 48.8 445.4 L 48.4 445.8 L 49.1 446.5 L 46.6 449.0 L 46.1 448.1 L 45.7 448.5 L 46.7 450.2 L 49.8 447.2 L 50.4 447.8 L 50.8 447.4 Z M 51.6 448.2 L 51.0 448.7 L 51.0 448.8 C 51.0 449.2 50.9 449.6 51.0 450.0 L 51.0 450.5 C 51.0 451.3 50.9 451.9 50.6 452.2 C 50.3 452.6 49.9 452.6 49.5 452.1 C 49.2 451.9 49.0 451.5 48.9 451.0 L 48.4 451.5 C 48.6 452.0 48.9 452.4 49.2 452.7 C 49.6 453.1 49.9 453.3 50.3 453.3 C 50.7 453.4 51.0 453.3 51.3 453.0 C 51.5 452.8 51.6 452.5 51.7 452.3 C 51.7 452.0 51.7 451.6 51.7 451.2 L 51.6 450.8 C 51.6 450.2 51.6 449.8 51.8 449.5 L 53.3 451.0 L 53.8 450.4 Z M 55.0 451.6 L 54.6 452.0 L 55.2 452.6 L 52.8 455.1 L 52.2 454.3 L 51.8 454.7 L 52.9 456.4 L 55.9 453.3 L 56.6 454.0 L 57.0 453.6 Z M 55.0 451.6 " fill="#000000"></path><path d="M 100.7 426.4 C 100.7 421.7 96.9 417.9 92.2 417.9 C 87.5 417.9 83.7 421.7 83.7 426.4 C 83.7 431.1 87.5 434.9 92.2 434.9 C 96.9 434.9 100.7 431.1 100.7 426.4 Z M 100.7 426.4 " fill="#FFCC00"></path><path d="M 88.2 418.8 L 87.6 419.4 L 87.6 419.5 C 87.5 419.9 87.5 420.3 87.6 420.6 L 87.6 421.1 C 87.6 422.0 87.5 422.6 87.2 422.9 C 86.9 423.2 86.5 423.2 86.1 422.8 C 85.8 422.6 85.6 422.2 85.5 421.7 L 85.0 422.2 C 85.2 422.7 85.5 423.1 85.8 423.4 C 86.1 423.7 86.5 423.9 86.9 424.0 C 87.3 424.0 87.6 423.9 87.9 423.6 C 88.1 423.4 88.2 423.2 88.3 422.9 C 88.3 422.7 88.3 422.3 88.3 421.8 L 88.2 421.4 C 88.2 420.8 88.2 420.4 88.4 420.1 L 89.9 421.6 L 90.4 421.1 Z M 91.5 422.2 L 91.2 422.6 L 91.8 423.3 L 89.3 425.8 L 88.8 424.9 L 88.4 425.4 L 89.4 427.0 L 92.5 424.0 L 93.2 424.7 L 93.6 424.3 Z M 94.3 425.0 L 93.8 425.5 L 93.8 425.6 C 93.7 426.0 93.7 426.4 93.7 426.8 L 93.7 427.3 C 93.8 428.1 93.7 428.7 93.4 429.0 C 93.0 429.4 92.6 429.4 92.2 429.0 C 92.0 428.7 91.8 428.3 91.6 427.8 L 91.1 428.3 C 91.3 428.8 91.6 429.2 91.9 429.5 C 92.3 429.9 92.7 430.1 93.0 430.1 C 93.4 430.2 93.8 430.1 94.0 429.8 C 94.2 429.6 94.4 429.4 94.4 429.1 C 94.5 428.8 94.5 428.4 94.4 428.0 L 94.4 427.6 C 94.3 427.0 94.4 426.6 94.5 426.3 L 96.0 427.8 L 96.5 427.2 Z M 97.7 428.4 L 97.3 428.8 L 98.0 429.5 L 95.5 431.9 L 95.0 431.1 L 94.6 431.5 L 95.6 433.2 L 98.6 430.1 L 99.3 430.8 L 99.7 430.4 Z M 97.7 428.4 " fill="#000000"></path><path d="M 119.5 420.3 C 119.5 415.6 115.7 411.8 111.1 411.8 C 106.4 411.8 102.6 415.6 102.6 420.3 C 102.6 425.0 106.4 428.8 111.1 428.8 C 115.7 428.8 119.5 425.0 119.5 420.3 Z M 119.5 420.3 " fill="#FFCC00"></path><path d="M 105.5 417.8 L 105.5 418.3 L 106.4 418.3 L 106.4 421.9 L 105.5 421.6 L 105.5 422.2 L 107.4 422.7 L 107.4 418.3 L 108.3 418.3 L 108.3 417.8 Z M 109.4 417.8 L 109.4 418.5 L 109.4 418.6 C 109.7 419.0 109.9 419.2 110.2 419.5 L 110.6 419.8 C 111.2 420.4 111.5 420.9 111.5 421.3 C 111.5 421.8 111.3 422.1 110.7 422.1 C 110.3 422.1 109.9 421.9 109.5 421.7 L 109.5 422.4 C 110.0 422.6 110.4 422.7 110.9 422.7 C 111.4 422.7 111.8 422.6 112.1 422.3 C 112.4 422.1 112.6 421.8 112.6 421.4 C 112.6 421.1 112.5 420.8 112.3 420.6 C 112.2 420.4 111.9 420.1 111.6 419.8 L 111.2 419.6 C 110.8 419.2 110.5 418.9 110.4 418.5 L 112.5 418.5 L 112.5 417.8 Z M 114.2 417.8 L 114.2 418.3 L 115.1 418.3 L 115.1 421.9 L 114.2 421.6 L 114.2 422.2 L 116.1 422.7 L 116.1 418.3 L 117.0 418.3 L 117.0 417.8 Z M 114.2 417.8 " fill="#000000"></path><path d="M 168.1 405.3 C 168.1 400.6 164.3 396.8 159.6 396.8 C 155.0 396.8 151.2 400.6 151.2 405.3 C 151.2 410.0 155.0 413.8 159.6 413.8 C 164.3 413.8 168.1 410.0 168.1 405.3 Z M 168.1 405.3 " fill="#FFCC00"></path><path d="M 155.8 402.8 L 155.8 403.6 L 155.8 403.6 C 156.1 404.0 156.3 404.3 156.6 404.5 L 157.0 404.8 C 157.6 405.4 158.0 405.9 158.0 406.3 C 158.0 406.8 157.7 407.1 157.1 407.1 C 156.8 407.1 156.4 407.0 155.9 406.7 L 155.9 407.4 C 156.4 407.6 156.8 407.7 157.3 407.7 C 157.8 407.7 158.2 407.6 158.5 407.3 C 158.8 407.1 159.0 406.8 159.0 406.4 C 159.0 406.1 158.9 405.9 158.7 405.6 C 158.6 405.4 158.3 405.1 158.0 404.8 L 157.6 404.6 C 157.2 404.2 156.9 403.9 156.8 403.6 L 158.9 403.6 L 158.9 402.8 Z M 160.6 402.8 L 160.6 403.4 L 161.5 403.4 L 161.5 406.9 L 160.6 406.6 L 160.6 407.2 L 162.5 407.7 L 162.5 403.4 L 163.4 403.4 L 163.4 402.8 Z M 160.6 402.8 " fill="#000000"></path><path d="M 187.6 401.3 C 187.6 396.6 183.8 392.8 179.1 392.8 C 174.5 392.8 170.7 396.6 170.7 401.3 C 170.7 406.0 174.5 409.8 179.1 409.8 C 183.8 409.8 187.6 406.0 187.6 401.3 Z M 187.6 401.3 " fill="#FFCC00"></path><path d="M 177.9 398.8 L 177.9 399.4 L 178.9 399.4 L 178.9 402.9 L 177.9 402.6 L 177.9 403.2 L 179.8 403.7 L 179.8 399.4 L 180.8 399.4 L 180.8 398.8 Z M 177.9 398.8 " fill="#000000"></path><path d="M 267.6 393.2 C 267.6 388.5 263.8 384.7 259.1 384.7 C 254.4 384.7 250.7 388.5 250.7 393.2 C 250.7 397.9 254.4 401.7 259.1 401.7 C 263.8 401.7 267.6 397.9 267.6 393.2 Z M 267.6 393.2 " fill="#FFCC00"></path><path d="M 257.4 390.7 L 257.4 391.5 L 257.5 391.5 C 257.7 391.9 258.0 392.2 258.3 392.4 L 258.6 392.7 C 259.3 393.3 259.6 393.8 259.6 394.2 C 259.6 394.7 259.3 395.0 258.8 395.0 C 258.4 395.0 258.0 394.9 257.5 394.6 L 257.5 395.3 C 258.0 395.5 258.5 395.6 258.9 395.6 C 259.5 395.6 259.9 395.5 260.2 395.2 C 260.5 395.0 260.6 394.7 260.6 394.3 C 260.6 394.0 260.5 393.7 260.4 393.5 C 260.3 393.3 260.0 393.0 259.6 392.7 L 259.3 392.5 C 258.8 392.1 258.6 391.8 258.5 391.5 L 260.6 391.5 L 260.6 390.7 Z M 257.4 390.7 " fill="#000000"></path><path d="M 457.5 448.1 C 457.5 443.4 453.7 439.6 449.0 439.6 C 444.3 439.6 440.5 443.4 440.5 448.1 C 440.5 452.8 444.3 456.6 449.0 456.6 C 453.7 456.6 457.5 452.8 457.5 448.1 Z M 457.5 448.1 " fill="#FFCC00"></path><path d="M 438.7 454.9 L 439.1 455.3 L 439.7 454.6 L 442.2 457.1 L 441.4 457.6 L 441.8 458.0 L 443.5 457.0 L 440.4 453.9 L 441.1 453.3 L 440.7 452.9 Z M 441.4 452.1 L 442.0 452.7 L 442.0 452.7 C 442.5 452.7 442.9 452.8 443.2 452.7 L 443.7 452.7 C 444.6 452.6 445.2 452.8 445.5 453.1 C 445.8 453.4 445.8 453.8 445.4 454.2 C 445.1 454.5 444.8 454.7 444.3 454.8 L 444.8 455.3 C 445.2 455.1 445.6 454.8 446.0 454.5 C 446.3 454.1 446.5 453.8 446.6 453.4 C 446.6 453.0 446.5 452.7 446.2 452.4 C 446.0 452.2 445.8 452.1 445.5 452.0 C 445.3 452.0 444.9 451.9 444.4 452.0 L 444.0 452.0 C 443.4 452.1 443.0 452.1 442.7 451.9 L 444.2 450.4 L 443.7 449.9 Z M 444.8 448.7 L 445.2 449.1 L 445.9 448.5 L 448.4 450.9 L 447.5 451.4 L 447.9 451.8 L 449.6 450.8 L 446.6 447.8 L 447.2 447.1 L 446.8 446.7 Z M 447.6 446.0 L 448.1 446.5 L 448.2 446.5 C 448.6 446.6 449.0 446.6 449.4 446.6 L 449.9 446.5 C 450.7 446.5 451.3 446.6 451.6 446.9 C 452.0 447.3 451.9 447.6 451.5 448.0 C 451.3 448.3 450.9 448.5 450.4 448.7 L 450.9 449.2 C 451.4 448.9 451.8 448.7 452.1 448.3 C 452.5 448.0 452.7 447.6 452.7 447.2 C 452.8 446.8 452.6 446.5 452.3 446.2 C 452.2 446.0 451.9 445.9 451.7 445.9 C 451.4 445.8 451.0 445.8 450.5 445.8 L 450.1 445.9 C 449.6 446.0 449.1 445.9 448.9 445.7 L 450.4 444.3 L 449.8 443.7 Z M 451.0 442.6 L 451.4 443.0 L 452.0 442.3 L 454.5 444.8 L 453.7 445.3 L 454.1 445.7 L 455.8 444.7 L 452.7 441.6 L 453.4 440.9 L 453.0 440.6 Z M 453.7 439.8 L 454.2 440.4 L 454.3 440.4 C 454.8 440.4 455.1 440.4 455.5 440.4 L 456.0 440.4 C 456.9 440.3 457.4 440.5 457.7 440.8 C 458.1 441.1 458.1 441.5 457.7 441.9 C 457.4 442.1 457.1 442.3 456.6 442.5 L 457.1 443.0 C 457.5 442.8 457.9 442.5 458.2 442.2 C 458.6 441.8 458.8 441.5 458.8 441.1 C 458.9 440.7 458.8 440.4 458.5 440.1 C 458.3 439.9 458.1 439.8 457.8 439.7 C 457.5 439.6 457.2 439.6 456.7 439.7 L 456.3 439.7 C 455.7 439.8 455.3 439.7 455.0 439.6 L 456.5 438.1 L 456.0 437.6 Z M 453.7 439.8 " fill="#000000"></path><path d="M 412.7 426.4 C 412.7 421.7 408.9 417.9 404.2 417.9 C 399.5 417.9 395.7 421.7 395.7 426.4 C 395.7 431.1 399.5 434.9 404.2 434.9 C 408.9 434.9 412.7 431.1 412.7 426.4 Z M 412.7 426.4 " fill="#FFCC00"></path><path d="M 395.1 432.0 L 395.6 432.5 L 395.7 432.6 C 396.1 432.6 396.5 432.6 396.9 432.6 L 397.4 432.6 C 398.2 432.5 398.8 432.7 399.1 433.0 C 399.5 433.3 399.4 433.7 399.0 434.1 C 398.8 434.3 398.4 434.5 397.9 434.7 L 398.4 435.2 C 398.9 435.0 399.3 434.7 399.6 434.4 C 400.0 434.0 400.2 433.7 400.2 433.3 C 400.3 432.9 400.1 432.6 399.9 432.3 C 399.7 432.1 399.4 431.9 399.2 431.9 C 398.9 431.8 398.5 431.8 398.1 431.9 L 397.7 431.9 C 397.1 432.0 396.7 431.9 396.4 431.8 L 397.9 430.3 L 397.3 429.8 Z M 398.5 428.6 L 398.9 429.0 L 399.5 428.3 L 402.0 430.8 L 401.2 431.3 L 401.6 431.7 L 403.3 430.7 L 400.2 427.7 L 400.9 427.0 L 400.5 426.6 Z M 401.2 425.9 L 401.8 426.4 L 401.8 426.4 C 402.3 426.5 402.7 426.5 403.0 426.5 L 403.5 426.4 C 404.4 426.4 405.0 426.5 405.3 426.8 C 405.6 427.2 405.6 427.5 405.2 427.9 C 404.9 428.2 404.6 428.4 404.1 428.5 L 404.6 429.0 C 405.0 428.8 405.4 428.6 405.8 428.2 C 406.1 427.9 406.3 427.5 406.4 427.1 C 406.4 426.7 406.3 426.4 406.0 426.1 C 405.8 425.9 405.6 425.8 405.3 425.7 C 405.0 425.7 404.7 425.7 404.2 425.7 L 403.8 425.8 C 403.2 425.8 402.8 425.8 402.5 425.6 L 404.0 424.1 L 403.5 423.6 Z M 404.6 422.5 L 405.0 422.9 L 405.7 422.2 L 408.2 424.7 L 407.3 425.2 L 407.7 425.6 L 409.4 424.6 L 406.4 421.5 L 407.0 420.8 L 406.6 420.4 Z M 407.4 419.7 L 407.9 420.2 L 408.0 420.3 C 408.4 420.3 408.8 420.3 409.2 420.3 L 409.7 420.3 C 410.5 420.2 411.1 420.3 411.4 420.6 C 411.8 421.0 411.7 421.4 411.3 421.8 C 411.1 422.0 410.7 422.2 410.2 422.4 L 410.7 422.9 C 411.2 422.7 411.6 422.4 411.9 422.1 C 412.3 421.7 412.5 421.3 412.5 421.0 C 412.6 420.6 412.4 420.2 412.1 420.0 C 412.0 419.8 411.7 419.6 411.5 419.6 C 411.2 419.5 410.8 419.5 410.3 419.6 L 409.9 419.6 C 409.4 419.7 408.9 419.6 408.7 419.5 L 410.2 418.0 L 409.6 417.5 Z M 407.4 419.7 " fill="#000000"></path><path d="M 393.8 420.3 C 393.8 415.6 390.0 411.8 385.3 411.8 C 380.7 411.8 376.9 415.6 376.9 420.3 C 376.9 425.0 380.7 428.8 385.3 428.8 C 390.0 428.8 393.8 425.0 393.8 420.3 Z M 393.8 420.3 " fill="#FFCC00"></path><path d="M 378.1 424.0 L 378.5 424.4 L 379.1 423.7 L 381.6 426.2 L 380.8 426.7 L 381.2 427.1 L 382.9 426.1 L 379.8 423.1 L 380.5 422.4 L 380.1 422.0 Z M 380.8 421.3 L 381.4 421.8 L 381.5 421.8 C 381.9 421.9 382.3 421.9 382.6 421.9 L 383.1 421.8 C 384.0 421.8 384.6 421.9 384.9 422.2 C 385.2 422.6 385.2 422.9 384.8 423.3 C 384.5 423.6 384.2 423.8 383.7 423.9 L 384.2 424.4 C 384.6 424.2 385.0 424.0 385.4 423.6 C 385.7 423.3 385.9 422.9 386.0 422.5 C 386.0 422.1 385.9 421.8 385.6 421.5 C 385.4 421.3 385.2 421.2 384.9 421.1 C 384.7 421.1 384.3 421.1 383.8 421.1 L 383.4 421.2 C 382.8 421.2 382.4 421.2 382.1 421.0 L 383.6 419.5 L 383.1 419.0 Z M 384.2 417.9 L 384.6 418.3 L 385.3 417.6 L 387.8 420.1 L 386.9 420.6 L 387.3 421.0 L 389.0 420.0 L 386.0 416.9 L 386.6 416.2 L 386.2 415.8 Z M 387.0 415.1 L 387.5 415.6 L 387.6 415.7 C 388.0 415.7 388.4 415.7 388.8 415.7 L 389.3 415.7 C 390.1 415.6 390.7 415.8 391.0 416.1 C 391.4 416.4 391.3 416.8 390.9 417.2 C 390.7 417.4 390.3 417.6 389.8 417.8 L 390.3 418.3 C 390.8 418.1 391.2 417.8 391.5 417.5 C 391.9 417.1 392.1 416.8 392.1 416.4 C 392.2 416.0 392.0 415.6 391.8 415.4 C 391.6 415.2 391.3 415.0 391.1 415.0 C 390.8 414.9 390.4 414.9 390.0 415.0 L 389.5 415.0 C 389.0 415.1 388.5 415.0 388.3 414.9 L 389.8 413.4 L 389.2 412.9 Z M 387.0 415.1 " fill="#000000"></path><path d="M 345.2 405.3 C 345.2 400.6 341.4 396.8 336.8 396.8 C 332.1 396.8 328.3 400.6 328.3 405.3 C 328.3 410.0 332.1 413.8 336.8 413.8 C 341.4 413.8 345.2 410.0 345.2 405.3 Z M 345.2 405.3 " fill="#FFCC00"></path><path d="M 330.7 402.8 L 330.7 403.6 L 330.8 403.6 C 331.0 404.0 331.3 404.3 331.5 404.5 L 331.9 404.8 C 332.6 405.4 332.9 405.9 332.9 406.3 C 332.9 406.8 332.6 407.1 332.0 407.1 C 331.7 407.1 331.3 407.0 330.8 406.7 L 330.8 407.4 C 331.3 407.6 331.8 407.7 332.2 407.7 C 332.7 407.7 333.1 407.6 333.4 407.3 C 333.8 407.1 333.9 406.8 333.9 406.4 C 333.9 406.1 333.8 405.9 333.7 405.6 C 333.5 405.4 333.3 405.1 332.9 404.8 L 332.6 404.6 C 332.1 404.2 331.9 403.9 331.8 403.6 L 333.9 403.6 L 333.9 402.8 Z M 335.5 402.8 L 335.5 403.4 L 336.5 403.4 L 336.5 406.9 L 335.5 406.6 L 335.5 407.2 L 337.4 407.7 L 337.4 403.4 L 338.4 403.4 L 338.4 402.8 Z M 339.4 402.8 L 339.4 403.6 L 339.4 403.6 C 339.7 404.0 340.0 404.3 340.2 404.5 L 340.6 404.8 C 341.3 405.4 341.6 405.9 341.6 406.3 C 341.6 406.8 341.3 407.1 340.7 407.1 C 340.4 407.1 340.0 407.0 339.5 406.7 L 339.5 407.4 C 340.0 407.6 340.5 407.7 340.9 407.7 C 341.4 407.7 341.8 407.6 342.1 407.3 C 342.4 407.1 342.6 406.8 342.6 406.4 C 342.6 406.1 342.5 405.9 342.4 405.6 C 342.2 405.4 342.0 405.1 341.6 404.8 L 341.3 404.6 C 340.8 404.2 340.6 403.9 340.5 403.6 L 342.6 403.6 L 342.6 402.8 Z M 339.4 402.8 " fill="#000000"></path><path d="M 325.7 401.3 C 325.7 396.6 321.9 392.8 317.2 392.8 C 312.6 392.8 308.8 396.6 308.8 401.3 C 308.8 406.0 312.6 409.8 317.2 409.8 C 321.9 409.8 325.7 406.0 325.7 401.3 Z M 325.7 401.3 " fill="#FFCC00"></path><path d="M 313.8 398.8 L 313.8 399.4 L 314.8 399.4 L 314.8 402.9 L 313.8 402.6 L 313.8 403.2 L 315.7 403.7 L 315.7 399.4 L 316.7 399.4 L 316.7 398.8 Z M 317.7 398.8 L 317.7 399.6 L 317.8 399.6 C 318.0 400.0 318.3 400.3 318.5 400.5 L 318.9 400.8 C 319.6 401.4 319.9 401.9 319.9 402.3 C 319.9 402.8 319.6 403.1 319.1 403.1 C 318.7 403.1 318.3 403.0 317.8 402.7 L 317.8 403.4 C 318.3 403.6 318.8 403.7 319.2 403.7 C 319.7 403.7 320.2 403.6 320.5 403.3 C 320.8 403.1 320.9 402.8 320.9 402.4 C 320.9 402.1 320.8 401.8 320.7 401.6 C 320.5 401.4 320.3 401.1 319.9 400.8 L 319.6 400.6 C 319.1 400.2 318.9 399.9 318.8 399.6 L 320.9 399.6 L 320.9 398.8 Z M 317.7 398.8 " fill="#000000"></path><path d="M 245.7 324.2 C 245.7 319.5 241.9 315.7 237.3 315.7 C 232.6 315.7 228.8 319.5 228.8 324.2 C 228.8 328.9 232.6 332.7 237.3 332.7 C 241.9 332.7 245.7 328.9 245.7 324.2 Z M 245.7 324.2 " fill="#FFCC00"></path><path d="M 237.2 321.6 C 236.7 321.6 236.3 321.8 235.9 322.3 C 235.6 322.7 235.4 323.3 235.4 324.1 C 235.4 324.8 235.6 325.4 235.9 325.9 C 236.3 326.3 236.7 326.6 237.3 326.6 C 237.8 326.6 238.3 326.3 238.6 325.9 C 238.9 325.4 239.1 324.8 239.1 324.1 C 239.1 323.3 238.9 322.7 238.6 322.2 C 238.3 321.8 237.8 321.6 237.2 321.6 Z M 237.3 322.2 C 237.8 322.2 238.1 322.8 238.1 324.1 C 238.1 325.3 237.8 326.0 237.3 326.0 C 236.7 326.0 236.4 325.3 236.4 324.1 C 236.4 322.8 236.7 322.2 237.3 322.2 Z M 237.3 322.2 " fill="#000000"></path><path d="M 56.4 269.3 C 56.4 264.6 52.6 260.8 47.9 260.8 C 43.3 260.8 39.5 264.6 39.5 269.3 C 39.5 274.0 43.3 277.8 47.9 277.8 C 52.6 277.8 56.4 274.0 56.4 269.3 Z M 56.4 269.3 " fill="#FFCC00"></path><path d="M 37.6 276.1 L 38.0 276.5 L 38.7 275.8 L 41.2 278.3 L 40.3 278.8 L 40.7 279.2 L 42.4 278.2 L 39.4 275.2 L 40.0 274.5 L 39.6 274.1 Z M 40.4 273.4 L 40.9 273.9 L 41.0 273.9 C 41.4 274.0 41.8 274.0 42.1 274.0 L 42.7 273.9 C 43.5 273.9 44.1 274.0 44.4 274.3 C 44.7 274.7 44.7 275.0 44.3 275.4 C 44.1 275.7 43.7 275.9 43.2 276.1 L 43.7 276.5 C 44.2 276.3 44.6 276.1 44.9 275.7 C 45.3 275.4 45.5 275.0 45.5 274.6 C 45.5 274.2 45.4 273.9 45.1 273.6 C 44.9 273.4 44.7 273.3 44.5 273.2 C 44.2 273.2 43.8 273.2 43.3 273.2 L 42.9 273.3 C 42.4 273.3 41.9 273.3 41.7 273.1 L 43.1 271.6 L 42.6 271.1 Z M 44.5 269.0 C 44.2 269.4 44.0 269.9 44.1 270.4 C 44.2 271.0 44.5 271.6 45.0 272.1 C 45.5 272.6 46.1 272.9 46.7 273.0 C 47.2 273.1 47.7 272.9 48.1 272.5 C 48.5 272.2 48.6 271.7 48.5 271.1 C 48.5 270.5 48.2 270.0 47.6 269.5 C 47.1 268.9 46.5 268.6 46.0 268.5 C 45.4 268.5 44.9 268.6 44.5 269.0 Z M 45.0 269.4 C 45.4 269.0 46.0 269.3 46.9 270.2 C 47.8 271.1 48.1 271.7 47.7 272.1 C 47.3 272.5 46.6 272.3 45.7 271.4 C 44.8 270.5 44.6 269.8 45.0 269.4 Z M 46.8 266.9 L 47.2 267.3 L 47.9 266.6 L 50.4 269.1 L 49.5 269.6 L 49.9 270.0 L 51.6 269.0 L 48.6 265.9 L 49.2 265.3 L 48.8 264.9 Z M 49.6 264.1 L 50.1 264.7 L 50.2 264.7 C 50.6 264.7 51.0 264.8 51.4 264.7 L 51.9 264.7 C 52.7 264.7 53.3 264.8 53.6 265.1 C 54.0 265.4 53.9 265.8 53.5 266.2 C 53.3 266.5 52.9 266.7 52.4 266.8 L 52.9 267.3 C 53.4 267.1 53.8 266.8 54.1 266.5 C 54.5 266.2 54.7 265.8 54.7 265.4 C 54.8 265.0 54.6 264.7 54.4 264.4 C 54.2 264.2 53.9 264.1 53.7 264.0 C 53.4 264.0 53.0 264.0 52.6 264.0 L 52.1 264.1 C 51.6 264.1 51.2 264.1 50.9 263.9 L 52.4 262.4 L 51.8 261.9 Z M 53.0 260.7 L 53.4 261.1 L 54.0 260.5 L 56.5 262.9 L 55.7 263.4 L 56.1 263.9 L 57.8 262.8 L 54.7 259.8 L 55.4 259.1 L 55.0 258.7 Z M 53.0 260.7 " fill="#000000"></path><path d="M 100.7 291.0 C 100.7 286.3 96.9 282.5 92.2 282.5 C 87.5 282.5 83.7 286.3 83.7 291.0 C 83.7 295.6 87.5 299.4 92.2 299.4 C 96.9 299.4 100.7 295.6 100.7 291.0 Z M 100.7 291.0 " fill="#FFCC00"></path><path d="M 83.1 296.6 L 83.6 297.1 L 83.7 297.1 C 84.1 297.2 84.5 297.2 84.9 297.2 L 85.4 297.1 C 86.3 297.1 86.8 297.2 87.1 297.5 C 87.5 297.9 87.5 298.2 87.1 298.6 C 86.8 298.9 86.4 299.1 86.0 299.2 L 86.4 299.7 C 86.9 299.5 87.3 299.3 87.6 298.9 C 88.0 298.6 88.2 298.2 88.2 297.8 C 88.3 297.4 88.2 297.1 87.9 296.8 C 87.7 296.6 87.5 296.5 87.2 296.4 C 86.9 296.4 86.6 296.4 86.1 296.4 L 85.7 296.5 C 85.1 296.5 84.7 296.5 84.4 296.3 L 85.9 294.8 L 85.3 294.3 Z M 86.5 293.2 L 86.9 293.6 L 87.6 292.9 L 90.0 295.4 L 89.2 295.9 L 89.6 296.3 L 91.3 295.3 L 88.2 292.2 L 88.9 291.5 L 88.5 291.1 Z M 90.3 289.1 C 90.0 289.5 89.8 290.0 89.9 290.6 C 90.0 291.1 90.3 291.7 90.8 292.2 C 91.4 292.7 91.9 293.0 92.5 293.1 C 93.0 293.2 93.5 293.0 93.9 292.7 C 94.3 292.3 94.4 291.8 94.4 291.2 C 94.3 290.7 94.0 290.1 93.4 289.6 C 92.9 289.1 92.4 288.7 91.8 288.7 C 91.2 288.6 90.7 288.7 90.3 289.1 Z M 90.8 289.5 C 91.2 289.1 91.8 289.4 92.7 290.3 C 93.6 291.2 93.9 291.8 93.5 292.2 C 93.1 292.6 92.4 292.4 91.5 291.5 C 90.6 290.6 90.4 289.9 90.8 289.5 Z M 92.3 287.3 L 92.8 287.9 L 92.9 287.9 C 93.4 287.9 93.7 288.0 94.1 287.9 L 94.6 287.9 C 95.5 287.8 96.0 288.0 96.3 288.3 C 96.7 288.6 96.7 289.0 96.3 289.4 C 96.0 289.6 95.7 289.9 95.2 290.0 L 95.7 290.5 C 96.1 290.3 96.5 290.0 96.8 289.7 C 97.2 289.3 97.4 289.0 97.4 288.6 C 97.5 288.2 97.4 287.9 97.1 287.6 C 96.9 287.4 96.7 287.3 96.4 287.2 C 96.1 287.1 95.8 287.1 95.3 287.2 L 94.9 287.2 C 94.3 287.3 93.9 287.3 93.6 287.1 L 95.1 285.6 L 94.6 285.1 Z M 95.7 283.9 L 96.1 284.3 L 96.8 283.6 L 99.3 286.1 L 98.4 286.6 L 98.8 287.0 L 100.5 286.0 L 97.4 283.0 L 98.1 282.3 L 97.7 281.9 Z M 95.7 283.9 " fill="#000000"></path><path d="M 119.5 297.1 C 119.5 292.4 115.7 288.6 111.1 288.6 C 106.4 288.6 102.6 292.4 102.6 297.1 C 102.6 301.8 106.4 305.6 111.1 305.6 C 115.7 305.6 119.5 301.8 119.5 297.1 Z M 119.5 297.1 " fill="#FFCC00"></path><path d="M 103.8 300.8 L 104.2 301.2 L 104.9 300.6 L 107.4 303.0 L 106.5 303.5 L 106.9 304.0 L 108.6 302.9 L 105.6 299.9 L 106.2 299.2 L 105.8 298.8 Z M 107.7 296.8 C 107.3 297.2 107.1 297.7 107.2 298.2 C 107.3 298.8 107.6 299.3 108.1 299.9 C 108.7 300.4 109.2 300.7 109.8 300.8 C 110.3 300.9 110.8 300.7 111.2 300.3 C 111.6 299.9 111.8 299.5 111.7 298.9 C 111.6 298.3 111.3 297.8 110.8 297.3 C 110.2 296.7 109.7 296.4 109.1 296.3 C 108.5 296.2 108.1 296.4 107.7 296.8 Z M 108.1 297.2 C 108.5 296.8 109.1 297.1 110.0 298.0 C 110.9 298.9 111.2 299.5 110.8 299.9 C 110.4 300.3 109.8 300.0 108.9 299.2 C 108.0 298.2 107.7 297.6 108.1 297.2 Z M 109.6 295.0 L 110.2 295.5 L 110.3 295.5 C 110.7 295.6 111.1 295.6 111.4 295.6 L 111.9 295.6 C 112.8 295.5 113.4 295.6 113.7 295.9 C 114.0 296.3 114.0 296.7 113.6 297.1 C 113.4 297.3 113.0 297.5 112.5 297.7 L 113.0 298.2 C 113.5 298.0 113.8 297.7 114.2 297.4 C 114.5 297.0 114.7 296.6 114.8 296.3 C 114.8 295.9 114.7 295.5 114.4 295.3 C 114.2 295.1 114.0 294.9 113.7 294.9 C 113.5 294.8 113.1 294.8 112.6 294.9 L 112.2 294.9 C 111.6 295.0 111.2 294.9 110.9 294.8 L 112.4 293.3 L 111.9 292.7 Z M 113.0 291.6 L 113.4 292.0 L 114.1 291.3 L 116.6 293.8 L 115.7 294.3 L 116.1 294.7 L 117.8 293.7 L 114.8 290.6 L 115.4 290.0 L 115.1 289.6 Z M 113.0 291.6 " fill="#000000"></path><path d="M 168.1 312.1 C 168.1 307.4 164.3 303.6 159.6 303.6 C 155.0 303.6 151.2 307.4 151.2 312.1 C 151.2 316.8 155.0 320.6 159.6 320.6 C 164.3 320.6 168.1 316.8 168.1 312.1 Z M 168.1 312.1 " fill="#FFCC00"></path><path d="M 153.6 309.6 L 153.6 310.3 L 153.7 310.4 C 153.9 310.8 154.2 311.0 154.4 311.3 L 154.8 311.6 C 155.5 312.2 155.8 312.7 155.8 313.1 C 155.8 313.6 155.5 313.9 154.9 313.9 C 154.6 313.9 154.2 313.7 153.7 313.5 L 153.7 314.2 C 154.2 314.4 154.7 314.5 155.1 314.5 C 155.6 314.5 156.0 314.4 156.3 314.1 C 156.6 313.9 156.8 313.5 156.8 313.1 C 156.8 312.9 156.7 312.6 156.6 312.4 C 156.4 312.2 156.2 311.9 155.8 311.6 L 155.5 311.3 C 155.0 311.0 154.8 310.6 154.7 310.3 L 156.8 310.3 L 156.8 309.6 Z M 159.6 309.5 C 159.1 309.5 158.6 309.7 158.3 310.2 C 158.0 310.6 157.8 311.2 157.8 312.0 C 157.8 312.7 158.0 313.3 158.3 313.8 C 158.6 314.2 159.1 314.5 159.6 314.5 C 160.2 314.5 160.6 314.2 161.0 313.8 C 161.3 313.3 161.5 312.7 161.5 312.0 C 161.5 311.2 161.3 310.6 161.0 310.2 C 160.6 309.7 160.2 309.5 159.6 309.5 Z M 159.6 310.1 C 160.2 310.1 160.5 310.7 160.5 312.0 C 160.5 313.2 160.2 313.9 159.6 313.9 C 159.1 313.9 158.8 313.2 158.8 312.0 C 158.8 310.7 159.1 310.1 159.6 310.1 Z M 162.7 309.6 L 162.7 310.1 L 163.7 310.1 L 163.7 313.7 L 162.7 313.4 L 162.7 314.0 L 164.6 314.5 L 164.6 310.1 L 165.6 310.1 L 165.6 309.6 Z M 162.7 309.6 " fill="#000000"></path><path d="M 187.6 316.1 C 187.6 311.4 183.8 307.6 179.1 307.6 C 174.5 307.6 170.7 311.4 170.7 316.1 C 170.7 320.8 174.5 324.6 179.1 324.6 C 183.8 324.6 187.6 320.8 187.6 316.1 Z M 187.6 316.1 " fill="#FFCC00"></path><path d="M 175.7 313.6 L 175.7 314.1 L 176.7 314.1 L 176.7 317.7 L 175.7 317.4 L 175.7 318.0 L 177.6 318.5 L 177.6 314.1 L 178.6 314.1 L 178.6 313.6 Z M 181.3 313.5 C 180.8 313.5 180.3 313.7 180.0 314.2 C 179.6 314.6 179.5 315.2 179.5 316.0 C 179.5 316.7 179.6 317.3 180.0 317.8 C 180.3 318.2 180.8 318.5 181.3 318.5 C 181.9 318.5 182.3 318.2 182.7 317.8 C 183.0 317.3 183.2 316.7 183.2 316.0 C 183.2 315.2 183.0 314.6 182.7 314.2 C 182.3 313.7 181.9 313.5 181.3 313.5 Z M 181.3 314.1 C 181.9 314.1 182.2 314.7 182.2 316.0 C 182.2 317.2 181.9 317.9 181.3 317.9 C 180.8 317.9 180.5 317.2 180.5 316.0 C 180.5 314.7 180.8 314.1 181.3 314.1 Z M 181.3 314.1 " fill="#000000"></path><path d="M 267.6 324.2 C 267.6 319.5 263.8 315.7 259.1 315.7 C 254.4 315.7 250.7 319.5 250.7 324.2 C 250.7 328.9 254.4 332.7 259.1 332.7 C 263.8 332.7 267.6 328.9 267.6 324.2 Z M 267.6 324.2 " fill="#FFCC00"></path><path d="M 255.2 321.7 L 255.2 322.4 L 255.3 322.5 C 255.6 322.9 255.8 323.1 256.1 323.4 L 256.5 323.7 C 257.1 324.3 257.4 324.8 257.4 325.2 C 257.4 325.7 257.2 326.0 256.6 326.0 C 256.2 326.0 255.8 325.8 255.4 325.6 L 255.4 326.3 C 255.9 326.5 256.3 326.6 256.8 326.6 C 257.3 326.6 257.7 326.5 258.0 326.2 C 258.3 326.0 258.5 325.7 258.5 325.3 C 258.5 325.0 258.4 324.7 258.2 324.5 C 258.1 324.3 257.8 324.0 257.4 323.7 L 257.1 323.4 C 256.7 323.1 256.4 322.7 256.3 322.4 L 258.4 322.4 L 258.4 321.7 Z M 261.3 321.6 C 260.7 321.6 260.3 321.8 260.0 322.3 C 259.6 322.7 259.4 323.3 259.4 324.1 C 259.4 324.8 259.6 325.4 260.0 325.9 C 260.3 326.3 260.7 326.6 261.3 326.6 C 261.8 326.6 262.3 326.3 262.6 325.9 C 263.0 325.4 263.1 324.8 263.1 324.1 C 263.1 323.3 263.0 322.7 262.6 322.2 C 262.3 321.8 261.8 321.6 261.3 321.6 Z M 261.3 322.2 C 261.8 322.2 262.1 322.8 262.1 324.1 C 262.1 325.3 261.9 326.0 261.3 326.0 C 260.7 326.0 260.5 325.3 260.5 324.1 C 260.5 322.8 260.7 322.2 261.3 322.2 Z M 261.3 322.2 " fill="#000000"></path><path d="M 457.5 269.3 C 457.5 264.6 453.7 260.8 449.0 260.8 C 444.3 260.8 440.5 264.6 440.5 269.3 C 440.5 274.0 444.3 277.8 449.0 277.8 C 453.7 277.8 457.5 274.0 457.5 269.3 Z M 457.5 269.3 " fill="#FFCC00"></path><path d="M 440.7 257.4 L 440.3 257.8 L 440.9 258.5 L 438.5 261.0 L 438.0 260.1 L 437.5 260.6 L 438.6 262.2 L 441.6 259.2 L 442.3 259.9 L 442.7 259.5 Z M 443.4 260.2 L 442.9 260.7 L 442.9 260.8 C 442.8 261.2 442.8 261.6 442.8 262.0 L 442.8 262.5 C 442.9 263.4 442.8 263.9 442.5 264.2 C 442.1 264.6 441.7 264.6 441.3 264.2 C 441.1 263.9 440.9 263.5 440.7 263.0 L 440.2 263.5 C 440.5 264.0 440.7 264.4 441.0 264.7 C 441.4 265.1 441.8 265.3 442.2 265.3 C 442.5 265.4 442.9 265.3 443.2 265.0 C 443.4 264.8 443.5 264.6 443.5 264.3 C 443.6 264.0 443.6 263.6 443.5 263.2 L 443.5 262.8 C 443.4 262.2 443.5 261.8 443.6 261.5 L 445.1 263.0 L 445.7 262.4 Z M 446.8 263.6 L 446.4 264.0 L 447.1 264.7 L 444.6 267.1 L 444.1 266.3 L 443.7 266.7 L 444.7 268.4 L 447.8 265.3 L 448.4 266.0 L 448.8 265.6 Z M 450.8 267.5 C 450.4 267.1 450.0 266.9 449.4 267.0 C 448.8 267.1 448.3 267.4 447.8 267.9 C 447.2 268.5 446.9 269.0 446.9 269.6 C 446.8 270.1 446.9 270.6 447.3 271.0 C 447.7 271.4 448.2 271.5 448.7 271.5 C 449.3 271.4 449.8 271.1 450.4 270.6 C 450.9 270.0 451.2 269.5 451.3 268.9 C 451.4 268.3 451.2 267.9 450.8 267.5 Z M 450.4 267.9 C 450.8 268.3 450.6 268.9 449.7 269.8 C 448.8 270.7 448.1 271.0 447.7 270.6 C 447.3 270.2 447.6 269.5 448.5 268.6 C 449.4 267.7 450.0 267.5 450.4 267.9 Z M 452.6 269.4 L 452.1 270.0 L 452.1 270.0 C 452.0 270.5 452.0 270.9 452.0 271.2 L 452.1 271.7 C 452.1 272.6 452.0 273.2 451.7 273.5 C 451.3 273.8 451.0 273.8 450.6 273.4 C 450.3 273.1 450.1 272.8 449.9 272.3 L 449.5 272.8 C 449.7 273.2 449.9 273.6 450.3 274.0 C 450.6 274.3 451.0 274.5 451.4 274.6 C 451.8 274.6 452.1 274.5 452.4 274.2 C 452.6 274.0 452.7 273.8 452.7 273.5 C 452.8 273.3 452.8 272.9 452.8 272.4 L 452.7 272.0 C 452.6 271.4 452.7 271.0 452.9 270.7 L 454.3 272.2 L 454.9 271.7 Z M 456.0 272.8 L 455.6 273.2 L 456.3 273.9 L 453.8 276.4 L 453.3 275.5 L 452.9 275.9 L 453.9 277.6 L 457.0 274.6 L 457.6 275.2 L 458.0 274.8 Z M 458.8 275.6 L 458.2 276.1 L 458.2 276.2 C 458.2 276.6 458.1 277.0 458.2 277.4 L 458.2 277.9 C 458.3 278.7 458.1 279.3 457.8 279.6 C 457.5 280.0 457.1 279.9 456.7 279.5 C 456.5 279.3 456.3 278.9 456.1 278.4 L 455.6 278.9 C 455.8 279.4 456.1 279.8 456.4 280.1 C 456.8 280.5 457.1 280.7 457.5 280.7 C 457.9 280.8 458.2 280.7 458.5 280.4 C 458.7 280.2 458.8 279.9 458.9 279.7 C 458.9 279.4 459.0 279.0 458.9 278.6 L 458.9 278.2 C 458.8 277.6 458.8 277.2 459.0 276.9 L 460.5 278.4 L 461.0 277.8 Z M 458.8 275.6 " fill="#000000"></path><path d="M 412.7 291.0 C 412.7 286.3 408.9 282.5 404.2 282.5 C 399.5 282.5 395.7 286.3 395.7 291.0 C 395.7 295.6 399.5 299.4 404.2 299.4 C 408.9 299.4 412.7 295.6 412.7 291.0 Z M 412.7 291.0 " fill="#FFCC00"></path><path d="M 397.1 280.3 L 396.5 280.8 L 396.5 280.9 C 396.5 281.3 396.4 281.7 396.5 282.1 L 396.5 282.6 C 396.6 283.5 396.4 284.0 396.1 284.3 C 395.8 284.7 395.4 284.7 395.0 284.3 C 394.8 284.0 394.5 283.7 394.4 283.2 L 393.9 283.7 C 394.1 284.1 394.4 284.5 394.7 284.8 C 395.1 285.2 395.4 285.4 395.8 285.4 C 396.2 285.5 396.5 285.4 396.8 285.1 C 397.0 284.9 397.1 284.7 397.2 284.4 C 397.2 284.1 397.2 283.8 397.2 283.3 L 397.2 282.9 C 397.1 282.3 397.1 281.9 397.3 281.6 L 398.8 283.1 L 399.3 282.6 Z M 400.5 283.7 L 400.1 284.1 L 400.7 284.8 L 398.3 287.3 L 397.8 286.4 L 397.3 286.8 L 398.4 288.5 L 401.4 285.4 L 402.1 286.1 L 402.5 285.7 Z M 404.5 287.6 C 404.1 287.2 403.6 287.0 403.1 287.1 C 402.5 287.2 401.9 287.5 401.4 288.0 C 400.9 288.6 400.6 289.1 400.5 289.7 C 400.4 290.2 400.6 290.7 401.0 291.1 C 401.4 291.5 401.8 291.7 402.4 291.6 C 403.0 291.5 403.5 291.2 404.0 290.7 C 404.6 290.1 404.9 289.6 405.0 289.0 C 405.0 288.4 404.9 288.0 404.5 287.6 Z M 404.1 288.0 C 404.5 288.4 404.2 289.0 403.3 289.9 C 402.4 290.8 401.8 291.1 401.4 290.7 C 401.0 290.3 401.2 289.7 402.1 288.8 C 403.0 287.9 403.7 287.6 404.1 288.0 Z M 406.3 289.5 L 405.8 290.1 L 405.7 290.2 C 405.7 290.6 405.7 291.0 405.7 291.3 L 405.7 291.8 C 405.8 292.7 405.6 293.3 405.3 293.6 C 405.0 293.9 404.6 293.9 404.2 293.5 C 404.0 293.3 403.8 292.9 403.6 292.4 L 403.1 292.9 C 403.3 293.4 403.6 293.8 403.9 294.1 C 404.3 294.4 404.6 294.6 405.0 294.7 C 405.4 294.7 405.7 294.6 406.0 294.3 C 406.2 294.1 406.3 293.9 406.4 293.6 C 406.5 293.4 406.5 293.0 406.4 292.5 L 406.4 292.1 C 406.3 291.5 406.4 291.1 406.5 290.8 L 408.0 292.3 L 408.5 291.8 Z M 409.7 292.9 L 409.3 293.3 L 410.0 294.0 L 407.5 296.5 L 407.0 295.6 L 406.6 296.1 L 407.6 297.7 L 410.6 294.7 L 411.3 295.4 L 411.7 295.0 Z M 412.4 295.7 L 411.9 296.2 L 411.9 296.3 C 411.8 296.7 411.8 297.1 411.8 297.5 L 411.9 298.0 C 411.9 298.8 411.8 299.4 411.5 299.7 C 411.1 300.1 410.8 300.1 410.4 299.7 C 410.1 299.4 409.9 299.0 409.7 298.5 L 409.3 299.0 C 409.5 299.5 409.7 299.9 410.1 300.2 C 410.4 300.6 410.8 300.8 411.2 300.8 C 411.6 300.9 411.9 300.8 412.2 300.5 C 412.4 300.3 412.5 300.1 412.5 299.8 C 412.6 299.5 412.6 299.1 412.6 298.7 L 412.5 298.3 C 412.4 297.7 412.5 297.3 412.7 297.0 L 414.1 298.5 L 414.7 297.9 Z M 412.4 295.7 " fill="#000000"></path><path d="M 393.8 297.1 C 393.8 292.4 390.0 288.6 385.3 288.6 C 380.7 288.6 376.9 292.4 376.9 297.1 C 376.9 301.8 380.7 305.6 385.3 305.6 C 390.0 305.6 393.8 301.8 393.8 297.1 Z M 393.8 297.1 " fill="#FFCC00"></path><path d="M 380.1 288.3 L 379.7 288.7 L 380.3 289.4 L 377.9 291.9 L 377.4 291.0 L 377.0 291.4 L 378.0 293.1 L 381.0 290.0 L 381.7 290.7 L 382.1 290.3 Z M 382.8 291.1 L 382.3 291.6 L 382.3 291.7 C 382.2 292.1 382.2 292.5 382.2 292.8 L 382.2 293.4 C 382.3 294.2 382.2 294.8 381.9 295.1 C 381.5 295.4 381.1 295.4 380.7 295.0 C 380.5 294.8 380.3 294.4 380.1 293.9 L 379.6 294.4 C 379.9 294.9 380.1 295.3 380.4 295.6 C 380.8 295.9 381.2 296.1 381.6 296.2 C 381.9 296.2 382.3 296.1 382.6 295.8 C 382.8 295.6 382.9 295.4 382.9 295.1 C 383.0 294.9 383.0 294.5 382.9 294.0 L 382.9 293.6 C 382.8 293.1 382.9 292.6 383.0 292.3 L 384.5 293.8 L 385.1 293.3 Z M 387.2 295.2 C 386.8 294.9 386.3 294.7 385.7 294.8 C 385.2 294.9 384.6 295.2 384.1 295.7 C 383.6 296.2 383.3 296.8 383.2 297.4 C 383.1 297.9 383.3 298.4 383.6 298.8 C 384.0 299.2 384.5 299.3 385.1 299.2 C 385.6 299.2 386.2 298.9 386.7 298.3 C 387.2 297.8 387.6 297.2 387.6 296.7 C 387.7 296.1 387.6 295.6 387.2 295.2 Z M 386.7 295.7 C 387.1 296.1 386.9 296.7 386.0 297.6 C 385.1 298.5 384.5 298.8 384.1 298.4 C 383.7 298.0 383.9 297.3 384.8 296.4 C 385.7 295.5 386.4 295.3 386.7 295.7 Z M 389.3 297.5 L 388.9 297.9 L 389.6 298.6 L 387.1 301.1 L 386.6 300.2 L 386.2 300.6 L 387.2 302.3 L 390.2 299.3 L 390.9 299.9 L 391.3 299.6 Z M 392.0 300.3 L 391.5 300.8 L 391.5 300.9 C 391.4 301.3 391.4 301.7 391.4 302.1 L 391.5 302.6 C 391.5 303.4 391.4 304.0 391.1 304.3 C 390.7 304.7 390.4 304.7 390.0 304.3 C 389.7 304.0 389.5 303.6 389.4 303.1 L 388.9 303.6 C 389.1 304.1 389.3 304.5 389.7 304.8 C 390.0 305.2 390.4 305.4 390.8 305.4 C 391.2 305.5 391.5 305.4 391.8 305.1 C 392.0 304.9 392.1 304.6 392.2 304.4 C 392.2 304.1 392.2 303.7 392.2 303.3 L 392.1 302.9 C 392.1 302.3 392.1 301.9 392.3 301.6 L 393.7 303.1 L 394.3 302.5 Z M 392.0 300.3 " fill="#000000"></path><path d="M 345.2 312.1 C 345.2 307.4 341.4 303.6 336.8 303.6 C 332.1 303.6 328.3 307.4 328.3 312.1 C 328.3 316.8 332.1 320.6 336.8 320.6 C 341.4 320.6 345.2 316.8 345.2 312.1 Z M 345.2 312.1 " fill="#FFCC00"></path><path d="M 332.7 304.5 L 332.2 305.0 L 332.2 305.1 C 332.1 305.5 332.1 305.9 332.1 306.3 L 332.1 306.8 C 332.2 307.7 332.1 308.2 331.8 308.5 C 331.4 308.9 331.0 308.9 330.6 308.5 C 330.4 308.2 330.2 307.8 330.0 307.4 L 329.5 307.8 C 329.7 308.3 330.0 308.7 330.3 309.0 C 330.7 309.4 331.1 309.6 331.4 309.6 C 331.8 309.7 332.2 309.6 332.4 309.3 C 332.6 309.1 332.8 308.9 332.8 308.6 C 332.9 308.3 332.9 308.0 332.8 307.5 L 332.8 307.1 C 332.7 306.5 332.8 306.1 332.9 305.8 L 334.4 307.3 L 334.9 306.7 Z M 337.0 308.7 C 336.7 308.3 336.2 308.1 335.6 308.2 C 335.1 308.3 334.5 308.6 334.0 309.2 C 333.5 309.7 333.2 310.2 333.1 310.8 C 333.0 311.4 333.1 311.8 333.5 312.2 C 333.9 312.6 334.4 312.8 335.0 312.7 C 335.5 312.6 336.1 312.3 336.6 311.8 C 337.1 311.2 337.4 310.7 337.5 310.1 C 337.6 309.6 337.4 309.1 337.0 308.7 Z M 336.6 309.1 C 337.0 309.5 336.8 310.2 335.9 311.1 C 335.0 312.0 334.3 312.2 333.9 311.8 C 333.6 311.4 333.8 310.8 334.7 309.9 C 335.6 309.0 336.2 308.7 336.6 309.1 Z M 339.2 311.0 L 338.8 311.4 L 339.4 312.0 L 337.0 314.5 L 336.5 313.7 L 336.1 314.1 L 337.1 315.8 L 340.1 312.7 L 340.8 313.4 L 341.2 313.0 Z M 341.9 313.7 L 341.4 314.3 L 341.4 314.3 C 341.3 314.8 341.3 315.2 341.3 315.5 L 341.3 316.0 C 341.4 316.9 341.3 317.5 341.0 317.8 C 340.6 318.1 340.2 318.1 339.8 317.7 C 339.6 317.4 339.4 317.1 339.2 316.6 L 338.7 317.1 C 339.0 317.6 339.2 317.9 339.5 318.3 C 339.9 318.6 340.3 318.8 340.7 318.9 C 341.0 318.9 341.4 318.8 341.7 318.5 C 341.9 318.3 342.0 318.1 342.0 317.8 C 342.1 317.6 342.1 317.2 342.0 316.7 L 342.0 316.3 C 341.9 315.7 342.0 315.3 342.1 315.0 L 343.6 316.5 L 344.2 316.0 Z M 341.9 313.7 " fill="#000000"></path><path d="M 325.7 316.1 C 325.7 311.4 321.9 307.6 317.2 307.6 C 312.6 307.6 308.8 311.4 308.8 316.1 C 308.8 320.8 312.6 324.6 317.2 324.6 C 321.9 324.6 325.7 320.8 325.7 316.1 Z M 325.7 316.1 " fill="#FFCC00"></path><path d="M 311.6 313.6 L 311.6 314.1 L 312.6 314.1 L 312.6 317.7 L 311.6 317.4 L 311.6 318.0 L 313.6 318.5 L 313.6 314.1 L 314.5 314.1 L 314.5 313.6 Z M 317.2 313.5 C 316.7 313.5 316.2 313.7 315.9 314.2 C 315.6 314.6 315.4 315.2 315.4 316.0 C 315.4 316.7 315.6 317.3 315.9 317.8 C 316.2 318.2 316.7 318.5 317.2 318.5 C 317.8 318.5 318.2 318.2 318.6 317.8 C 318.9 317.3 319.1 316.7 319.1 316.0 C 319.1 315.2 318.9 314.6 318.6 314.2 C 318.2 313.7 317.8 313.5 317.2 313.5 Z M 317.2 314.1 C 317.8 314.1 318.1 314.7 318.1 316.0 C 318.1 317.2 317.8 317.9 317.2 317.9 C 316.7 317.9 316.4 317.2 316.4 316.0 C 316.4 314.7 316.7 314.1 317.2 314.1 Z M 319.9 313.6 L 319.9 314.3 L 319.9 314.4 C 320.2 314.8 320.5 315.0 320.7 315.3 L 321.1 315.6 C 321.8 316.2 322.1 316.7 322.1 317.1 C 322.1 317.6 321.8 317.9 321.2 317.9 C 320.9 317.9 320.5 317.7 320.0 317.5 L 320.0 318.2 C 320.5 318.4 321.0 318.5 321.4 318.5 C 321.9 318.5 322.3 318.4 322.6 318.1 C 322.9 317.9 323.1 317.6 323.1 317.2 C 323.1 316.9 323.0 316.6 322.9 316.4 C 322.7 316.2 322.5 315.9 322.1 315.6 L 321.8 315.3 C 321.3 315.0 321.0 314.7 321.0 314.3 L 323.1 314.3 L 323.1 313.6 Z M 319.9 313.6 " fill="#000000"></path><path d="M 233.1 409.3 C 233.1 408.3 232.3 407.5 231.3 407.5 C 230.3 407.5 229.5 408.3 229.5 409.3 C 229.5 410.3 230.3 411.1 231.3 411.1 C 232.3 411.1 233.1 410.3 233.1 409.3 Z M 233.1 409.3 " fill="#000000"></path><path d="M 478.9 323.8 C 478.9 325.9 477.1 327.6 475.1 327.6 C 472.9 327.6 471.2 325.9 471.2 323.8 C 471.2 321.7 472.9 320.0 475.1 320.0 C 477.1 320.0 478.9 321.7 478.9 323.8 Z M 478.9 323.8 " fill="none" stroke="#000000" stroke-width="1.00" transform="matrix(0.47, 0.00, 0.00, -0.47, 7.9, 561.9)"></path><path d="M 227.0 413.2 L 227.0 416.2 L 227.5 416.2 L 227.5 415.7 C 227.8 416.1 228.1 416.3 228.5 416.3 C 228.9 416.3 229.2 416.1 229.4 415.7 C 229.6 416.1 229.9 416.3 230.4 416.3 C 230.6 416.3 230.8 416.2 231.0 416.1 C 231.1 415.9 231.2 415.7 231.2 415.4 L 231.2 413.2 L 230.6 413.2 L 230.6 415.3 C 230.6 415.7 230.5 415.8 230.2 415.8 C 230.0 415.8 229.7 415.6 229.4 415.2 L 229.4 413.2 L 228.8 413.2 L 228.8 415.3 C 228.8 415.7 228.7 415.8 228.4 415.8 C 228.1 415.8 227.8 415.6 227.5 415.2 L 227.5 413.2 Z M 232.2 413.2 L 232.2 416.2 L 232.8 416.2 L 232.8 413.2 Z M 232.2 416.8 L 232.2 417.3 L 232.8 417.3 L 232.8 416.8 Z M 235.0 413.2 C 234.6 413.2 234.3 413.3 234.0 413.6 C 233.8 413.9 233.6 414.3 233.6 414.7 C 233.6 415.2 233.8 415.6 234.0 415.9 C 234.3 416.1 234.7 416.3 235.1 416.3 C 235.4 416.3 235.6 416.3 235.9 416.2 L 235.9 415.7 C 235.6 415.8 235.4 415.9 235.2 415.9 C 234.9 415.9 234.7 415.8 234.5 415.6 C 234.3 415.3 234.2 415.1 234.2 414.7 C 234.2 414.4 234.3 414.1 234.5 413.9 C 234.7 413.7 234.9 413.6 235.2 413.6 C 235.4 413.6 235.7 413.7 235.9 413.8 L 235.9 413.3 C 235.6 413.2 235.3 413.2 235.0 413.2 Z M 235.0 413.2 " fill="#000000"></path><path d="M 226.9 354.8 C 226.0 354.8 225.3 355.2 224.8 355.9 C 224.3 356.6 224.0 357.6 224.0 358.7 C 224.0 359.9 224.3 360.9 224.8 361.6 C 225.3 362.3 226.0 362.7 226.9 362.7 C 227.8 362.7 228.5 362.3 229.0 361.6 C 229.5 360.9 229.8 359.9 229.8 358.8 C 229.8 357.6 229.5 356.6 229.0 355.9 C 228.5 355.2 227.7 354.8 226.9 354.8 Z M 226.9 355.7 C 227.8 355.7 228.2 356.7 228.2 358.7 C 228.2 360.7 227.8 361.7 226.9 361.7 C 226.0 361.7 225.6 360.7 225.6 358.7 C 225.6 356.7 226.0 355.7 226.9 355.7 Z M 226.9 355.7 " fill="#000000"></path><path d="M 245.8 393.3 C 245.8 388.6 242.1 384.8 237.4 384.8 C 232.7 384.8 228.9 388.6 228.9 393.3 C 228.9 398.0 232.7 401.8 237.4 401.8 C 242.1 401.8 245.8 398.0 245.8 393.3 Z M 245.8 393.3 " fill="#FFFFFF"></path><path d="M 232.8 391.2 L 232.8 395.3 L 234.5 395.3 C 235.2 395.3 235.6 395.1 236.0 394.8 C 236.3 394.4 236.5 393.9 236.5 393.3 C 236.5 392.6 236.3 392.1 235.9 391.7 C 235.6 391.4 235.1 391.2 234.4 391.2 Z M 233.6 391.8 L 234.2 391.8 C 234.7 391.8 235.0 391.9 235.2 392.1 C 235.5 392.4 235.6 392.8 235.6 393.3 C 235.6 393.6 235.5 394.0 235.3 394.2 C 235.2 394.4 235.0 394.5 234.9 394.6 C 234.7 394.7 234.5 394.7 234.1 394.7 L 233.6 394.7 Z M 237.2 391.2 L 237.2 395.3 L 238.1 395.3 L 238.1 391.2 Z M 239.1 391.2 L 239.1 395.3 L 240.6 395.3 C 241.5 395.3 241.9 394.9 241.9 394.3 C 241.9 394.0 241.8 393.8 241.7 393.6 C 241.5 393.4 241.3 393.2 241.1 393.1 L 242.4 391.2 L 241.4 391.2 L 240.4 392.8 L 239.9 392.8 L 239.9 391.2 Z M 239.9 393.4 L 240.1 393.4 C 240.7 393.4 241.0 393.7 241.0 394.2 C 241.0 394.5 240.8 394.7 240.2 394.7 L 239.9 394.7 Z M 239.9 393.4 " fill="#000000"></path><path d="M 505.9 357.7 C 505.9 367.6 497.9 375.7 487.9 375.7 C 478.0 375.7 469.9 367.6 469.9 357.7 C 469.9 347.8 478.0 339.7 487.9 339.7 C 497.9 339.7 505.9 347.8 505.9 357.7 Z M 505.9 357.7 " fill="none" stroke="#000000" stroke-width="1.00" transform="matrix(0.47, 0.00, 0.00, -0.47, 7.9, 561.9)"></path><path d="M 226.7 413.2 L 226.7 416.2 L 227.2 416.2 L 227.2 415.7 C 227.5 416.1 227.8 416.3 228.2 416.3 C 228.6 416.3 228.9 416.1 229.1 415.7 C 229.3 416.1 229.7 416.3 230.1 416.3 C 230.3 416.3 230.5 416.2 230.7 416.1 C 230.8 415.9 230.9 415.7 230.9 415.4 L 230.9 413.2 L 230.4 413.2 L 230.4 415.3 C 230.4 415.7 230.2 415.8 229.9 415.8 C 229.7 415.8 229.4 415.6 229.1 415.2 L 229.1 413.2 L 228.5 413.2 L 228.5 415.3 C 228.5 415.7 228.4 415.8 228.1 415.8 C 227.8 415.8 227.5 415.6 227.2 415.2 L 227.2 413.2 Z M 232.0 413.2 L 232.0 416.2 L 232.5 416.2 L 232.5 413.2 Z M 232.0 416.8 L 232.0 417.3 L 232.5 417.3 L 232.5 416.8 Z M 234.8 413.2 C 234.3 413.2 234.0 413.3 233.7 413.6 C 233.5 413.9 233.3 414.3 233.3 414.7 C 233.3 415.2 233.5 415.6 233.7 415.9 C 234.0 416.1 234.4 416.3 234.8 416.3 C 235.1 416.3 235.3 416.3 235.6 416.2 L 235.6 415.7 C 235.3 415.8 235.1 415.9 234.9 415.9 C 234.6 415.9 234.4 415.8 234.2 415.6 C 234.0 415.3 234.0 415.1 234.0 414.7 C 234.0 414.4 234.0 414.1 234.2 413.9 C 234.4 413.7 234.6 413.6 234.9 413.6 C 235.1 413.6 235.4 413.7 235.7 413.8 L 235.7 413.3 C 235.3 413.2 235.0 413.2 234.8 413.2 Z M 234.8 413.2 " fill="#000000"></path><path d="M 233.4 409.3 C 233.4 408.2 232.5 407.2 231.3 407.2 C 230.2 407.2 229.3 408.2 229.3 409.3 C 229.3 410.4 230.2 411.3 231.3 411.3 C 232.5 411.3 233.4 410.4 233.4 409.3 Z M 233.4 409.3 " fill="#000000"></path><path d="M 479.4 323.8 C 479.4 326.2 477.4 328.1 475.1 328.1 C 472.7 328.1 470.7 326.2 470.7 323.8 C 470.7 321.4 472.7 319.5 475.1 319.5 C 477.4 319.5 479.4 321.4 479.4 323.8 Z M 479.4 323.8 " fill="none" stroke="#000000" stroke-width="1.00" transform="matrix(0.47, 0.00, 0.00, -0.47, 7.9, 561.9)"></path><path d="M 422.0 430.2 L 511.5 430.7 " fill="none" stroke="#000000" stroke-width="2.00" transform="matrix(0.47, 0.00, 0.00, -0.47, 7.9, 561.9)"></path><path d="M 512.0 430.2 L 512.0 218.0 " fill="none" stroke="#000000" stroke-width="7.00" transform="matrix(0.47, 0.00, 0.00, -0.47, 7.9, 561.9)"></path><path d="M 94.3 344.1 L 183.2 152.2 " fill="none" stroke="#000000" stroke-width="1.00" stroke-dasharray="6.0, 2.0" transform="matrix(0.47, 0.00, 0.00, -0.47, 7.9, 561.9)"></path><path d="M 330.4 414.0 L 421.0 430.6 " fill="none" stroke="#000000" stroke-width="1.00" stroke-dasharray="6.0, 2.0" transform="matrix(0.47, 0.00, 0.00, -0.47, 7.9, 561.9)"></path><path d="M 330.0 413.4 L 366.9 204.2 " fill="none" stroke="#000000" stroke-width="5.00" stroke-dasharray="30.0, 10.0" transform="matrix(0.47, 0.00, 0.00, -0.47, 7.9, 561.9)"></path><path d="M 170.7 371.9 L 95.3 345.0 " fill="none" stroke="#000000" stroke-width="1.00" stroke-dasharray="6.0, 2.0" transform="matrix(0.47, 0.00, 0.00, -0.47, 7.9, 561.9)"></path><path d="M 171.3 371.6 L 243.8 172.6 " fill="none" stroke="#000000" stroke-width="5.00" stroke-dasharray="30.0, 10.0" transform="matrix(0.47, 0.00, 0.00, -0.47, 7.9, 561.9)"></path><path d="M 246.2 398.5 L 329.4 413.8 " fill="none" stroke="#000000" stroke-width="1.00" stroke-dasharray="6.0, 2.0" transform="matrix(0.47, 0.00, 0.00, -0.47, 7.9, 561.9)"></path><path d="M 245.2 398.2 L 171.7 372.2 " fill="none" stroke="#000000" stroke-width="1.00" stroke-dasharray="6.0, 2.0" transform="matrix(0.47, 0.00, 0.00, -0.47, 7.9, 561.9)"></path><path d="M 245.8 397.9 L 300.7 193.0 " fill="none" stroke="#000000" stroke-width="1.00" stroke-dasharray="6.0, 2.0" transform="matrix(0.47, 0.00, 0.00, -0.47, 7.9, 561.9)"></path><path d="M 24.1 308.8 L 93.1 344.1 " fill="none" stroke="#000000" stroke-width="1.00" stroke-dasharray="6.0, 2.0" transform="matrix(0.47, 0.00, 0.00, -0.47, 7.9, 561.9)"></path><path d="M 23.9 308.0 L 129.1 125.9 " fill="none" stroke="#000000" stroke-width="5.00" stroke-dasharray="30.0, 10.0" transform="matrix(0.47, 0.00, 0.00, -0.47, 7.9, 561.9)"></path><path d="M 603.5 430.2 L 584.9 218.0 " fill="none" stroke="#000000" stroke-width="1.00" stroke-dasharray="6.0, 2.0" transform="matrix(0.47, 0.00, 0.00, -0.47, 7.9, 561.9)"></path><path d="M 603.0 430.7 L 513.5 430.7 " fill="none" stroke="#000000" stroke-width="1.00" stroke-dasharray="6.0, 2.0" transform="matrix(0.47, 0.00, 0.00, -0.47, 7.9, 561.9)"></path><path d="M 927.7 344.3 L 838.2 152.4 " fill="none" stroke="#000000" stroke-width="1.00" stroke-dasharray="6.0, 2.0" transform="matrix(0.47, 0.00, 0.00, -0.47, 7.9, 561.9)"></path><path d="M 690.9 414.3 L 604.0 430.6 " fill="none" stroke="#000000" stroke-width="1.00" stroke-dasharray="6.0, 2.0" transform="matrix(0.47, 0.00, 0.00, -0.47, 7.9, 561.9)"></path><path d="M 691.3 413.7 L 654.4 204.4 " fill="none" stroke="#000000" stroke-width="5.00" stroke-dasharray="30.0, 10.0" transform="matrix(0.47, 0.00, 0.00, -0.47, 7.9, 561.9)"></path><path d="M 850.6 372.1 L 927.4 345.0 " fill="none" stroke="#000000" stroke-width="1.00" stroke-dasharray="6.0, 2.0" transform="matrix(0.47, 0.00, 0.00, -0.47, 7.9, 561.9)"></path><path d="M 850.0 371.8 L 777.5 172.8 " fill="none" stroke="#000000" stroke-width="5.00" stroke-dasharray="30.0, 10.0" transform="matrix(0.47, 0.00, 0.00, -0.47, 7.9, 561.9)"></path><path d="M 775.1 398.8 L 691.9 414.1 " fill="none" stroke="#000000" stroke-width="1.00" stroke-dasharray="6.0, 2.0" transform="matrix(0.47, 0.00, 0.00, -0.47, 7.9, 561.9)"></path><path d="M 776.1 398.5 L 849.6 372.5 " fill="none" stroke="#000000" stroke-width="1.00" stroke-dasharray="6.0, 2.0" transform="matrix(0.47, 0.00, 0.00, -0.47, 7.9, 561.9)"></path><path d="M 775.5 398.2 L 720.6 193.2 " fill="none" stroke="#000000" stroke-width="1.00" stroke-dasharray="6.0, 2.0" transform="matrix(0.47, 0.00, 0.00, -0.47, 7.9, 561.9)"></path><path d="M 997.2 309.0 L 928.4 344.6 " fill="none" stroke="#000000" stroke-width="1.00" stroke-dasharray="6.0, 2.0" transform="matrix(0.47, 0.00, 0.00, -0.47, 7.9, 561.9)"></path><path d="M 997.4 308.3 L 892.2 126.1 " fill="none" stroke="#000000" stroke-width="5.00" stroke-dasharray="30.0, 10.0" transform="matrix(0.47, 0.00, 0.00, -0.47, 7.9, 561.9)"></path><path d="M 440.1 217.8 L 421.5 430.2 " fill="none" stroke="#000000" stroke-width="1.00" stroke-dasharray="6.0, 2.0" transform="matrix(0.47, 0.00, 0.00, -0.47, 7.9, 561.9)"></path><path d="M 421.5 431.2 L 440.1 643.6 " fill="none" stroke="#000000" stroke-width="2.00" transform="matrix(0.47, 0.00, 0.00, -0.47, 7.9, 561.9)"></path><path d="M 421.5 431.2 L 511.5 430.7 " fill="none" stroke="#000000" stroke-width="2.00" transform="matrix(0.47, 0.00, 0.00, -0.47, 7.9, 561.9)"></path><path d="M 512.0 431.2 L 512.0 643.4 " fill="none" stroke="#000000" stroke-width="7.00" transform="matrix(0.47, 0.00, 0.00, -0.47, 7.9, 561.9)"></path><path d="M 94.3 517.3 L 183.2 709.2 " fill="none" stroke="#000000" stroke-width="1.00" stroke-dasharray="6.0, 2.0" transform="matrix(0.47, 0.00, 0.00, -0.47, 7.9, 561.9)"></path><path d="M 330.4 447.4 L 421.0 430.8 " fill="none" stroke="#000000" stroke-width="1.00" stroke-dasharray="6.0, 2.0" transform="matrix(0.47, 0.00, 0.00, -0.47, 7.9, 561.9)"></path><path d="M 330.0 447.9 L 366.9 657.2 " fill="none" stroke="#000000" stroke-width="5.00" stroke-dasharray="30.0, 10.0" transform="matrix(0.47, 0.00, 0.00, -0.47, 7.9, 561.9)"></path><path d="M 170.7 489.5 L 95.3 516.4 " fill="none" stroke="#000000" stroke-width="1.00" stroke-dasharray="6.0, 2.0" transform="matrix(0.47, 0.00, 0.00, -0.47, 7.9, 561.9)"></path><path d="M 171.3 489.8 L 243.8 688.8 " fill="none" stroke="#000000" stroke-width="5.00" stroke-dasharray="30.0, 10.0" transform="matrix(0.47, 0.00, 0.00, -0.47, 7.9, 561.9)"></path><path d="M 246.2 462.9 L 329.4 447.5 " fill="none" stroke="#000000" stroke-width="1.00" stroke-dasharray="6.0, 2.0" transform="matrix(0.47, 0.00, 0.00, -0.47, 7.9, 561.9)"></path><path d="M 245.2 463.1 L 171.7 489.2 " fill="none" stroke="#000000" stroke-width="1.00" stroke-dasharray="6.0, 2.0" transform="matrix(0.47, 0.00, 0.00, -0.47, 7.9, 561.9)"></path><path d="M 245.8 463.4 L 300.7 668.4 " fill="none" stroke="#000000" stroke-width="1.00" stroke-dasharray="6.0, 2.0" transform="matrix(0.47, 0.00, 0.00, -0.47, 7.9, 561.9)"></path><path d="M 24.1 552.6 L 93.1 517.3 " fill="none" stroke="#000000" stroke-width="1.00" stroke-dasharray="6.0, 2.0" transform="matrix(0.47, 0.00, 0.00, -0.47, 7.9, 561.9)"></path><path d="M 23.9 553.4 L 129.1 735.5 " fill="none" stroke="#000000" stroke-width="5.00" stroke-dasharray="30.0, 10.0" transform="matrix(0.47, 0.00, 0.00, -0.47, 7.9, 561.9)"></path><path d="M 603.5 431.2 L 584.9 643.4 " fill="none" stroke="#000000" stroke-width="1.00" stroke-dasharray="6.0, 2.0" transform="matrix(0.47, 0.00, 0.00, -0.47, 7.9, 561.9)"></path><path d="M 603.0 430.7 L 513.5 430.7 " fill="none" stroke="#000000" stroke-width="1.00" stroke-dasharray="6.0, 2.0" transform="matrix(0.47, 0.00, 0.00, -0.47, 7.9, 561.9)"></path><path d="M 927.7 517.1 L 838.2 709.0 " fill="none" stroke="#000000" stroke-width="1.00" stroke-dasharray="6.0, 2.0" transform="matrix(0.47, 0.00, 0.00, -0.47, 7.9, 561.9)"></path><path d="M 690.9 447.1 L 604.0 430.8 " fill="none" stroke="#000000" stroke-width="1.00" stroke-dasharray="6.0, 2.0" transform="matrix(0.47, 0.00, 0.00, -0.47, 7.9, 561.9)"></path><path d="M 691.3 447.7 L 654.4 657.0 " fill="none" stroke="#000000" stroke-width="5.00" stroke-dasharray="30.0, 10.0" transform="matrix(0.47, 0.00, 0.00, -0.47, 7.9, 561.9)"></path><path d="M 850.6 489.3 L 927.4 516.4 " fill="none" stroke="#000000" stroke-width="1.00" stroke-dasharray="6.0, 2.0" transform="matrix(0.47, 0.00, 0.00, -0.47, 7.9, 561.9)"></path><path d="M 850.0 489.6 L 777.5 688.6 " fill="none" stroke="#000000" stroke-width="5.00" stroke-dasharray="30.0, 10.0" transform="matrix(0.47, 0.00, 0.00, -0.47, 7.9, 561.9)"></path><path d="M 775.1 462.6 L 691.9 447.3 " fill="none" stroke="#000000" stroke-width="1.00" stroke-dasharray="6.0, 2.0" transform="matrix(0.47, 0.00, 0.00, -0.47, 7.9, 561.9)"></path><path d="M 776.1 462.9 L 849.6 488.9 " fill="none" stroke="#000000" stroke-width="1.00" stroke-dasharray="6.0, 2.0" transform="matrix(0.47, 0.00, 0.00, -0.47, 7.9, 561.9)"></path><path d="M 775.5 463.2 L 720.6 668.2 " fill="none" stroke="#000000" stroke-width="1.00" stroke-dasharray="6.0, 2.0" transform="matrix(0.47, 0.00, 0.00, -0.47, 7.9, 561.9)"></path><path d="M 997.2 552.4 L 928.4 516.8 " fill="none" stroke="#000000" stroke-width="1.00" stroke-dasharray="6.0, 2.0" transform="matrix(0.47, 0.00, 0.00, -0.47, 7.9, 561.9)"></path><path d="M 997.4 553.1 L 892.2 735.3 " fill="none" stroke="#000000" stroke-width="5.00" stroke-dasharray="30.0, 10.0" transform="matrix(0.47, 0.00, 0.00, -0.47, 7.9, 561.9)"></path></g></g></g></g></g></g></g></g><image xlink:href="90C5314FE6ECAB785514894919C049B2.png" width="674.00" height="416.00" transform="matrix(0.80, 0.00, -0.00, -0.81, 506.0, 527.0)"></image></g></svg>