<?xml version="1.0" encoding="UTF-8" standalone="no"?><svg xmlns="http://www.w3.org/2000/svg" xmlns:xlink="http://www.w3.org/1999/xlink" clip-rule="evenodd" stroke-miterlimit="10" viewBox="0 0 245 32"><desc>SVG generated by Keynote</desc><defs></defs><g transform="matrix(1.00, 0.00, -0.00, -1.00, 0.0, 32.0)"><text xml:space="preserve" font-family="Helvetica-Light,Helvetica" font-size="29.0" fill="#000000" transform="matrix(1.00, 0.00, -0.00, -1.00, 0.9, 8.2)">C</text><text xml:space="preserve" font-family="Helvetica-Light,Helvetica" font-size="29.0" fill="#000000" transform="matrix(1.00, 0.00, -0.00, -1.00, 21.8, 8.2)">o</text><text xml:space="preserve" font-family="Helvetica-Light,Helvetica" font-size="29.0" fill="#000000" transform="matrix(1.00, 0.00, -0.00, -1.00, 37.9, 8.2)">n</text><text xml:space="preserve" font-family="Helvetica-Light,Helvetica" font-size="29.0" fill="#000000" transform="matrix(1.00, 0.00, -0.00, -1.00, 54.1, 8.2)">v</text><text xml:space="preserve" font-family="Helvetica-Light,Helvetica" font-size="29.0" fill="#000000" transform="matrix(1.00, 0.00, -0.00, -1.00, 68.6, 8.2)">o</text><text xml:space="preserve" font-family="Helvetica-Light,Helvetica" font-size="29.0" fill="#000000" transform="matrix(1.00, 0.00, -0.00, -1.00, 84.7, 8.2)">l</text><text xml:space="preserve" font-family="Helvetica-Light,Helvetica" font-size="29.0" fill="#000000" transform="matrix(1.00, 0.00, -0.00, -1.00, 91.1, 8.2)">v</text><text xml:space="preserve" font-family="Helvetica-Light,Helvetica" font-size="29.0" fill="#000000" transform="matrix(1.00, 0.00, -0.00, -1.00, 105.6, 8.2)">e</text><text xml:space="preserve" font-family="Helvetica-Light,Helvetica" font-size="29.0" fill="#000000" transform="matrix(1.00, 0.00, -0.00, -1.00, 121.7, 8.2)">d</text><text xml:space="preserve" font-family="Helvetica-Light,Helvetica" font-size="29.0" fill="#000000" transform="matrix(1.00, 0.00, -0.00, -1.00, 139.5, 8.2)"> </text><text xml:space="preserve" font-family="Helvetica-Light,Helvetica" font-size="29.0" fill="#000000" transform="matrix(1.00, 0.00, -0.00, -1.00, 147.5, 8.2)">(</text><text xml:space="preserve" font-family="Helvetica-Light,Helvetica" font-size="29.0" fill="#000000" transform="matrix(1.00, 0.00, -0.00, -1.00, 157.2, 8.2)">s</text><text xml:space="preserve" font-family="Helvetica-Light,Helvetica" font-size="29.0" fill="#000000" transform="matrix(1.00, 0.00, -0.00, -1.00, 171.7, 8.2)">y</text><text xml:space="preserve" font-family="Helvetica-Light,Helvetica" font-size="29.0" fill="#000000" transform="matrix(1.00, 0.00, -0.00, -1.00, 186.2, 8.2)">n</text><text xml:space="preserve" font-family="Helvetica-Light,Helvetica" font-size="29.0" fill="#000000" transform="matrix(1.00, 0.00, -0.00, -1.00, 202.3, 8.2)">t</text><text xml:space="preserve" font-family="Helvetica-Light,Helvetica" font-size="29.0" fill="#000000" transform="matrix(1.00, 0.00, -0.00, -1.00, 210.4, 8.2)">h</text><text xml:space="preserve" font-family="Helvetica-Light,Helvetica" font-size="29.0" fill="#000000" transform="matrix(1.00, 0.00, -0.00, -1.00, 226.5, 8.2)">.</text><text xml:space="preserve" font-family="Helvetica-Light,Helvetica" font-size="29.0" fill="#000000" transform="matrix(1.00, 0.00, -0.00, -1.00, 234.5, 8.2)">)</text></g></svg>